<svg width="190" height="200" viewBox="0 0 190 200" fill="none" xmlns="http://www.w3.org/2000/svg">
<path d="M186.386 117.868C186.981 116.222 187.48 114.564 187.918 112.897C189.715 106.047 190.072 99.018 187.991 91.9376C186.786 87.8401 185.476 83.7487 183.839 79.8164C179.985 70.5671 173.451 64.2137 163.676 61.5792C163.439 61.5161 163.229 61.426 162.991 61.3689C162.673 61.2908 162.409 60.9754 162.36 60.9393C162.46 57.2264 162.589 53.6246 162.67 50.0408C162.709 48.3556 162.763 46.6673 162.751 44.9881C162.673 33.3266 157.119 24.0262 148.933 16.4561C141.522 9.60396 132.573 4.81558 122.888 1.85664C117.889 0.327607 113.026 -0.234094 108.328 0.087334C100.331 0.634062 92.8059 3.74614 85.8817 9.05721C77.897 15.1824 73.358 23.915 70.348 33.4257C69.9845 34.5582 69.5789 35.6696 69.1283 36.9944C68.1911 36.3606 67.5152 35.889 66.8273 35.4263C62.2852 32.3953 57.3526 30.4487 51.9004 29.7247C39.2505 28.0485 28.1328 32.3172 18.9796 40.2448C7.27901 50.3863 0.982629 63.8953 0.0543933 79.5041C-0.441267 87.8642 2.44555 95.1128 8.92218 100.709C9.64013 101.334 10.301 102.034 10.9709 102.677C9.83237 105.299 8.70289 107.733 7.72058 110.217C5.05603 116.922 5.24529 123.537 8.16819 130.167C8.97626 131.999 9.95255 133.702 10.9949 135.36C12.9355 138.436 15.2065 141.269 17.7719 143.916C21.7102 147.977 25.9699 150.84 30.5209 152.597C37.2739 155.205 44.6758 155.358 52.6934 153.207C53.3513 153.027 54.0272 152.892 54.613 152.751C54.8143 153.054 54.9315 153.156 54.9375 153.258C54.9615 153.619 54.9795 153.991 54.9494 154.352C54.4778 160.465 55.2709 166.145 57.1935 171.441C59.0019 176.425 61.8076 181.063 65.5716 185.371C74.7819 195.921 91.0155 199.892 103.374 194.599C105.266 193.791 107.009 192.638 108.781 191.664C111.223 193.217 113.539 194.807 115.961 196.215C122.536 200.049 129.539 200.872 136.826 198.733C146.818 195.804 153.955 189.405 158.116 179.988C161.342 172.688 163.304 164.905 163.451 156.887C163.568 150.314 162.961 143.73 162.649 136.433C163.965 136.039 165.346 135.697 166.734 135.321C168.338 134.889 169.952 134.408 171.484 133.738C178.645 130.59 183.74 125.135 186.386 117.868ZM160.904 130.025C158.825 126.841 156.551 123.407 154.331 119.947C150.624 114.143 145.451 109.835 139.701 106.327C136.974 104.66 133.621 103.951 130.485 103.01C128.887 102.533 126.955 103.9 126.481 105.48C126.006 107.045 126.682 108.105 128.752 109.021C129.196 109.22 129.635 109.463 130.104 109.562C137.316 111.076 141.972 116.261 146.268 121.509C151.363 127.727 154.487 134.868 155.172 143.192C156.019 153.499 155.088 163.415 151.627 173.154C149.455 179.27 145.817 184.187 140.29 187.531C133.741 191.487 126.937 192.118 120.163 188.036C117.871 186.657 115.729 185.004 113.627 183.346C109.292 179.919 107.012 179.958 103.263 183.854C101.487 185.698 99.2975 186.729 96.8673 187.179C86.4284 189.135 77.7798 185.864 71.0959 177.729C65.9471 171.462 63.4958 164.154 63.7181 155.98C63.7722 153.958 63.5709 151.924 63.4778 149.641C65.2772 150.615 66.8213 151.558 68.4494 152.297C69.8913 152.952 71.4084 153.469 72.9344 153.898C78.1253 155.361 82.8897 155.019 86.5245 150.137C83.911 147.821 80.9822 145.952 77.137 145.454C69.3356 144.444 64.9438 139.353 62.3724 132.35C61.4982 129.971 61.4591 127.556 62.4955 125.198C63.8653 122.065 65.0909 118.847 66.7251 115.855C67.6864 114.08 69.0653 112.35 70.6664 111.136C78.0052 105.564 85.5872 100.415 95.2151 99.7089C95.6927 99.6759 96.3085 99.6128 96.5939 99.3094C97.4741 98.3902 98.7207 97.4079 98.8529 96.3294C98.946 95.5664 97.6243 94.2657 96.651 93.8061C92.893 92.0277 88.9938 92.7336 85.2058 93.8C80.111 95.233 75.3797 97.492 71.0479 100.562C69.8643 101.403 68.6207 102.154 67.1547 103.112C66.5479 99.7059 64.8236 97.9937 61.7084 97.6482C60.7922 97.5491 59.9481 96.8491 59.0619 96.4526C55.1207 94.6742 51.0833 94.2206 46.9288 95.5874C44.5796 96.3625 42.6991 97.6992 42.4198 100.349C42.1374 103.01 43.6905 104.663 45.8714 105.882C49.5963 107.958 53.5376 109.033 57.8303 108.652C58.7585 108.568 59.6928 108.547 60.8283 108.481C59.116 112.01 57.626 115.345 55.9227 118.562C52.339 125.33 52.2188 132.101 55.5713 138.965C55.8296 139.503 56.0399 140.065 56.3553 140.801C52.7656 143.799 48.566 144.799 44.1591 145.162C34.4111 145.965 27.3157 141.269 21.4879 134.042C20.7219 133.092 20.0159 132.086 19.331 131.074C14.2092 123.468 13.0196 117.42 19.5473 106.928C19.9979 106.204 20.6077 105.579 21.0493 104.849C22.9058 101.773 22.3441 99.027 19.4152 96.8461C18.1445 95.8969 16.7897 95.0558 15.558 94.0584C11.055 90.4026 8.91915 85.5421 9.30366 79.8555C10.2049 66.5598 15.5761 55.0845 25.7086 46.5802C32.2843 41.0589 40.341 37.8386 49.4251 38.3793C56.7609 38.8179 62.7298 42.0652 68.152 46.6793C68.8009 47.2321 69.3657 47.9019 70.0506 48.4066C72.2255 50.0108 73.388 49.5541 75.0793 47.3402C76.8607 45.0121 77.4404 42.4797 77.9992 39.674C79.6994 31.1066 83.3613 23.2451 89.8349 17.3392C98.2071 9.70605 108.361 6.94547 119.445 9.79025C128.553 12.1334 136.932 16.5342 143.775 22.9027C150.092 28.7815 154.742 36.0722 154.977 45.2554C155.088 49.7704 155.022 54.2945 155.139 58.8095C155.187 60.5819 154.511 61.5251 152.796 61.9487C150.801 62.4473 148.839 63.1142 146.529 63.8082C142.988 57.3435 137.932 52.6152 130.575 51.1403C130.563 45.2734 129.761 39.8993 127.103 34.9427C126.532 33.8763 125.847 32.8279 125.036 31.9387C122.903 29.5926 120.199 29.2231 117.403 30.7551C115.153 31.9898 113.702 33.9003 112.8 36.2584C111.554 39.5478 111.286 42.9244 112.01 46.3549C112.44 48.3856 112.987 50.3863 113.521 52.5672C112.455 53.2611 111.319 53.94 110.253 54.718C109.379 55.3579 108.451 56.0097 107.79 56.8508C106.621 58.3318 106.6 60.3265 107.61 61.6362C108.679 63.0301 110.184 63.5588 111.842 63.1412C113.134 62.8168 114.303 62.0268 115.588 61.6783C118.745 60.8102 121.9 59.6386 125.123 59.3773C131.332 58.8786 136.851 62.8588 138.992 68.7617C139.161 69.2153 139.215 69.714 139.386 70.1676C140.753 73.8836 143.258 74.974 146.923 73.4239C149.056 72.5197 151.11 71.3963 153.294 70.6573C160.453 68.2481 167.614 69.9844 171.952 76.1305C180.156 87.762 183.74 100.556 178.87 114.576C177.263 119.205 174.533 123.341 170.066 125.94C169.537 126.249 169.047 126.64 168.495 126.877C165.971 127.95 163.436 128.977 160.904 130.025Z" fill="#9B1500"/>
<path d="M170.066 125.94C174.533 123.341 177.264 119.205 178.871 114.576C183.74 100.556 180.156 87.7621 171.952 76.1306C167.615 69.9844 160.453 68.2481 153.295 70.6573C151.111 71.3963 149.056 72.5198 146.923 73.424C143.258 74.9741 140.753 73.8836 139.386 70.1677C139.215 69.714 139.161 69.2154 138.993 68.7618C136.851 62.8589 131.332 58.8786 125.123 59.3773C121.9 59.6387 118.746 60.8102 115.588 61.6784C114.303 62.0268 113.134 62.8168 111.842 63.1413C110.184 63.5588 108.679 63.0301 107.61 61.6363C106.6 60.3265 106.621 58.3319 107.79 56.8509C108.451 56.0098 109.379 55.3579 110.253 54.7181C111.32 53.94 112.455 53.2611 113.522 52.5672C112.987 50.3863 112.44 48.3857 112.011 46.355C111.287 42.9244 111.554 39.5479 112.801 36.2585C113.702 33.9003 115.153 31.9898 117.403 30.7552C120.199 29.2231 122.903 29.5926 125.036 31.9388C125.847 32.8279 126.532 33.8763 127.103 34.9428C129.761 39.8994 130.563 45.2735 130.575 51.1403C137.932 52.6153 142.988 57.3436 146.53 63.8082C148.84 63.1143 150.801 62.4474 152.796 61.9487C154.511 61.5252 155.187 60.5819 155.139 58.8095C155.022 54.2945 155.088 49.7705 154.977 45.2555C154.743 36.0722 150.092 28.7815 143.775 22.9027C136.932 16.5342 128.554 12.1334 119.445 9.7903C108.361 6.94551 98.2072 9.70609 89.8351 17.3393C83.3615 23.2451 79.6996 31.1066 77.9993 39.6741C77.4406 42.4798 76.8608 45.0121 75.0795 47.3402C73.3882 49.5542 72.2256 50.0108 70.0508 48.4067C69.3658 47.902 68.8011 47.2321 68.1522 46.6794C62.73 42.0652 56.7611 38.8179 49.4253 38.3793C40.3412 37.8386 32.2845 41.0589 25.7087 46.5803C15.5762 55.0846 10.205 66.5598 9.30383 79.8556C8.91932 85.5421 11.0552 90.4026 15.5582 94.0585C16.7898 95.0558 18.1446 95.8969 19.4153 96.8462C22.3442 99.0271 22.9059 101.773 21.0495 104.849C20.6079 105.579 19.9981 106.204 19.5475 106.928C13.0198 117.421 14.2094 123.468 19.3312 131.074C20.0161 132.086 20.7221 133.092 21.4881 134.042C27.3159 141.269 34.4113 145.965 44.1593 145.163C48.5661 144.799 52.7657 143.799 56.3555 140.801C56.0401 140.065 55.8298 139.503 55.5715 138.965C52.219 132.101 52.3391 125.33 55.9229 118.562C57.6262 115.345 59.1162 112.01 60.8285 108.481C59.693 108.547 58.7587 108.568 57.8305 108.652C53.5377 109.033 49.5965 107.958 45.8715 105.882C43.6906 104.663 42.1376 103.01 42.4199 100.349C42.6993 97.6993 44.5798 96.3625 46.9289 95.5875C51.0835 94.2207 55.1208 94.6743 59.0621 96.4527C59.9483 96.8492 60.7924 97.5491 61.7086 97.6483C64.8238 97.9937 66.5481 99.706 67.1549 103.112C68.6208 102.154 69.8645 101.403 71.0481 100.562C75.3798 97.4921 80.1111 95.233 85.2059 93.8001C88.994 92.7337 92.8932 92.0278 96.6512 93.8061C97.6245 94.2658 98.9462 95.5665 98.8531 96.3295C98.7209 97.4079 97.4743 98.3902 96.5941 99.3094C96.3087 99.6128 95.6929 99.676 95.2152 99.709C85.5874 100.415 78.0053 105.564 70.6666 111.136C69.0654 112.35 67.6866 114.08 66.7253 115.856C65.0911 118.847 63.8655 122.065 62.4957 125.198C61.4593 127.556 61.4984 129.971 62.3725 132.35C64.944 139.353 69.3358 144.445 77.1372 145.454C80.9823 145.953 83.9112 147.821 86.5247 150.137C82.8899 155.019 78.1255 155.361 72.9346 153.898C71.4086 153.469 69.8915 152.952 68.4496 152.297C66.8214 151.558 65.2774 150.615 63.478 149.641C63.5711 151.925 63.7724 153.958 63.7183 155.98C63.496 164.154 65.9473 171.463 71.0961 177.729C77.78 185.864 86.4285 189.135 96.8674 187.179C99.2977 186.729 101.488 185.698 103.263 183.854C107.012 179.958 109.292 179.919 113.627 183.346C115.73 185.005 117.871 186.657 120.163 188.036C126.937 192.118 133.742 191.487 140.29 187.531C145.818 184.187 149.455 179.27 151.627 173.154C155.088 163.415 156.019 153.499 155.172 143.192C154.487 134.868 151.363 127.727 146.268 121.509C141.972 116.261 137.316 111.076 130.104 109.562C129.635 109.463 129.196 109.22 128.752 109.021C126.682 108.105 126.006 107.045 126.481 105.48C126.956 103.9 128.887 102.533 130.485 103.01C133.621 103.951 136.974 104.66 139.701 106.327C145.451 109.835 150.624 114.143 154.331 119.947C156.551 123.408 158.825 126.841 160.904 130.025C163.436 128.977 165.971 127.95 168.495 126.877C169.048 126.64 169.537 126.249 170.066 125.94Z" fill="white"/>
</svg>
