<svg width="1153" height="826" viewBox="0 0 1153 826" fill="none" xmlns="http://www.w3.org/2000/svg">
<path d="M427.507 401.053L360.463 392.427C353.977 391.28 347.844 395.773 347.004 402.307L298.805 777.587C297.983 784 302.755 789.76 309.203 790.147L380.66 794.347L427.507 401.053Z" fill="#4B5C6E"/>
<path d="M973.775 512.213L1070.36 379.067C1091.54 349.893 1098.41 313.16 1089.24 278.307C1080.06 243.44 1055.98 214.853 1023.18 199.88L617.187 14.4935C541.991 -19.8531 453.449 10.8534 415.644 84.3734L411.907 91.6401C373.007 167.293 375.989 255.987 419.881 328.867L480.22 429.04L495.533 419.827L435.195 319.64C394.517 252.107 391.757 169.933 427.805 99.8134L431.543 92.5467C464.973 27.5334 543.248 0.373474 609.765 30.7602L1015.75 216.147C1043.66 228.88 1064.14 253.2 1071.95 282.854C1079.75 312.507 1073.9 343.747 1055.9 368.573L959.309 501.72L973.775 512.213Z" fill="#4B5C6E"/>
<path d="M827.383 298.52C818.844 368.147 868.381 431.52 938.028 440.053C1007.67 448.587 1071.06 399.067 1079.6 329.427C1088.14 259.8 1038.6 196.44 968.952 187.893C899.305 179.36 835.923 228.893 827.383 298.52Z" fill="#282F39"/>
<path d="M401.467 159.987C390.091 252.747 456.083 337.16 548.864 348.533C641.645 359.907 726.081 293.92 737.456 201.173C748.832 108.413 682.84 24.0001 590.06 12.6268C497.279 1.25345 412.843 67.2268 401.467 159.987Z" fill="#282F39"/>
<path d="M379.283 794.28L943.272 825.853C952.981 826.387 961.449 819.307 962.633 809.667L997.296 527.027C998.479 517.373 991.973 508.453 982.419 506.64L427.507 401.053C417.016 399.067 407.024 406.347 405.725 416.947L361.987 773.587C360.687 784.187 368.621 793.68 379.283 794.28Z" fill="#282F39"/>
<path d="M453.939 596.907L657.263 608.293C664.659 608.707 671.107 603.32 672.008 595.973L683.776 500.013C684.677 492.667 679.723 485.88 672.447 484.493L472.393 446.427C464.404 444.907 456.795 450.467 455.805 458.533L440.765 581.16C439.776 589.24 445.819 596.453 453.939 596.907Z" fill="#4B5C6E"/>
<path d="M972.173 731.867L1075.49 803.16C1081.97 807.627 1090.89 803.627 1091.85 795.813L1119.33 571.667C1120.29 563.853 1112.61 557.813 1105.24 560.587L987.756 604.813L972.173 731.867Z" fill="#282F39"/>
<path d="M581.453 536.173C579.331 553.48 591.643 569.227 608.952 571.347C626.261 573.467 642.013 561.16 644.136 543.853C646.257 526.547 633.947 510.8 616.637 508.68C599.328 506.56 583.576 518.867 581.453 536.173Z" fill="white"/>
<path d="M486.061 524.48C483.939 541.787 496.251 557.533 513.559 559.653C530.868 561.773 546.62 549.467 548.743 532.16C550.865 514.853 538.553 499.107 521.244 496.987C503.936 494.867 488.183 507.173 486.061 524.48Z" fill="#F6A228"/>
<path d="M914.901 655.813L900.773 771L702.148 754.04L717.799 626.373L914.901 655.813ZM916.425 790.293L934.772 640.707L702.291 605.987L682.148 770.28L916.425 790.293Z" fill="#4B5C6E"/>
<path d="M870.181 565.987C867.545 587.48 882.833 607.027 904.328 609.667C925.823 612.307 945.384 597.013 948.02 575.533C950.656 554.04 935.367 534.48 913.872 531.84C892.377 529.213 872.816 544.494 870.181 565.987Z" fill="#4B5C6E"/>
<path d="M909.088 553.12C909.804 553.12 910.52 553.16 911.249 553.253C915.924 553.827 920.097 556.187 923 559.893C925.897 563.613 927.18 568.227 926.607 572.907C925.423 582.56 916.613 589.48 906.952 588.253C902.277 587.68 898.104 585.32 895.201 581.613C892.304 577.907 891.021 573.293 891.595 568.613C892.688 559.68 900.312 553.12 909.088 553.12ZM909.12 596.333C921.848 596.333 932.909 586.813 934.497 573.867C935.325 567.093 933.469 560.387 929.257 555.013C925.051 549.627 918.996 546.2 912.213 545.36C898.241 543.747 885.416 553.64 883.704 567.64C882.877 574.427 884.732 581.12 888.944 586.507C893.151 591.893 899.205 595.307 905.989 596.147C907.037 596.267 908.085 596.333 909.12 596.333Z" fill="white"/>
<path d="M731.899 542.187C720.707 550.933 718.724 567.093 727.472 578.28C736.219 589.48 752.383 591.453 763.575 582.707C774.767 573.973 801.887 528.493 798.321 523.933C794.756 519.373 743.091 533.453 731.899 542.187Z" fill="#F6A228"/>
<path d="M736.512 560.987C735.67 567.853 740.55 574.093 747.412 574.933C754.273 575.773 760.516 570.893 761.357 564.04C762.199 557.173 757.319 550.933 750.459 550.093C743.597 549.253 737.353 554.133 736.512 560.987Z" fill="white"/>
<path d="M880.735 747.707C882.799 747.707 884.544 746.107 884.693 744.013C884.849 741.827 883.196 739.92 881.008 739.76L829.061 736.093C826.893 735.907 824.967 737.573 824.817 739.773C824.66 741.96 826.315 743.867 828.501 744.013L880.448 747.693C880.547 747.707 880.637 747.707 880.735 747.707Z" fill="white"/>
<path d="M590.768 736.387C589.56 746.24 596.571 755.2 606.428 756.413C616.284 757.627 625.255 750.613 626.464 740.76C627.672 730.907 620.661 721.933 610.804 720.733C600.947 719.52 591.977 726.533 590.768 736.387Z" fill="#F6A228"/>
<path d="M526.071 731.08C524.863 740.933 531.873 749.893 541.731 751.107C551.588 752.32 560.559 745.307 561.767 735.453C562.975 725.6 555.964 716.627 546.107 715.427C536.251 714.213 527.28 721.227 526.071 731.08Z" fill="white"/>
<path d="M461.115 727.88C459.907 737.733 466.917 746.707 476.775 747.92C486.632 749.12 495.603 742.107 496.811 732.253C498.019 722.4 491.008 713.44 481.151 712.227C471.295 711.013 462.324 718.027 461.115 727.88Z" fill="#F6A228"/>
<path d="M254.04 698.04L321.52 706.307L348.288 488.027L280.808 479.76L254.04 698.04Z" fill="#282F39"/>
<path d="M280.808 479.76L103.307 357.28C92.1732 349.6 76.8532 356.48 75.2132 369.907L27.9866 754.973C26.3466 768.4 39.5333 778.773 52.1999 774.013L254.04 698.04L280.808 479.76Z" fill="#4B5C6E"/>
<path d="M5.77316 556.56C-8.48018 672.827 5.81316 770.253 37.7065 774.16C69.6132 778.067 107.027 686.987 121.293 570.72C135.547 454.453 121.253 357.027 89.3465 353.12C57.4531 349.213 20.0398 440.293 5.77316 556.56Z" fill="white"/>
<path d="M222.56 584.227C215.107 644.987 225.6 696.267 246 698.76C266.4 701.253 288.973 654.027 296.425 593.28C303.876 532.52 293.381 481.24 272.984 478.733C252.587 476.24 230.013 523.467 222.56 584.227Z" fill="#4B5C6E"/>
<path d="M296.185 592.493C288.785 652.84 299.321 703.787 319.72 706.28C340.117 708.787 362.652 661.893 370.053 601.547C377.453 541.213 366.917 490.267 346.52 487.773C326.121 485.267 303.587 532.16 296.185 592.493Z" fill="#282F39"/>
<path d="M1050.17 676.587C1041.81 744.787 1057.5 802.84 1085.21 806.227C1112.93 809.627 1142.17 757.093 1150.53 688.893C1158.89 620.693 1143.2 562.653 1115.49 559.253C1087.78 555.853 1058.53 608.387 1050.17 676.587Z" fill="#282F39"/>
</svg>
