<svg width="451" height="451" viewBox="0 0 451 451" fill="none" xmlns="http://www.w3.org/2000/svg">
<path d="M67.5159 257.947C95.5372 261.373 121.157 241.36 124.62 213.12C128.056 185.107 108.032 159.493 80.0118 156.053C51.7652 152.6 26.3705 172.64 22.9358 200.653C19.4718 228.893 39.2705 254.48 67.5159 257.947ZM64.5732 351.133C82.0198 373.453 114.108 377.386 136.432 359.946C158.753 342.506 162.688 310.427 145.241 288.107C128.02 265.813 95.7065 261.853 73.3839 279.293C51.0612 296.747 47.1278 328.827 64.5732 351.133ZM171.787 73.52C154.34 51.2 122.253 47.2665 99.9306 64.7065C77.6066 82.1599 73.6732 114.24 90.8932 136.52C108.34 158.84 140.653 162.8 162.949 145.587C185.272 128.147 189.233 95.84 171.787 73.52ZM237.757 124.72C266.004 128.173 291.399 108.133 294.833 80.1199C298.269 52.1066 278.471 26.52 250.225 23.0533C222.207 19.6266 196.585 39.64 193.149 67.6533C189.715 95.6666 209.739 121.28 237.757 124.72ZM200.549 428.12C228.795 431.573 254.189 411.533 257.625 383.52C261.06 355.507 241.263 329.92 213.016 326.453C184.997 323.027 159.376 343.04 155.941 371.053C152.505 399.067 172.529 424.68 200.549 428.12ZM305.533 163.067C322.98 185.387 355.068 189.32 377.391 171.867C399.713 154.427 403.647 122.347 386.427 100.053C368.979 77.7466 336.666 73.7866 314.342 91.2266C292.049 108.44 288.087 140.747 305.533 163.067ZM279.213 377.68C296.435 399.973 328.748 403.933 351.071 386.48C373.392 369.04 377.355 336.733 359.909 314.427C342.461 292.107 310.373 288.173 288.051 305.613C265.729 323.053 261.767 355.36 279.213 377.68ZM428.091 250.32C431.527 222.307 411.504 196.693 383.483 193.253C355.237 189.8 329.843 209.84 326.407 237.853C322.944 266.093 342.741 291.68 370.988 295.147C399.008 298.573 424.628 278.56 428.091 250.32ZM252.775 2.26657C376.152 17.3999 463.981 129.747 448.881 252.867C433.753 376.213 321.377 464.013 198 448.893C74.6225 433.773 -12.9802 321.453 2.14648 198.107C17.2465 74.9865 129.397 -12.8534 252.775 2.26657Z" fill="white"/>
<path d="M147.24 215.987C141.944 259.173 172.668 298.467 215.864 303.76C259.06 309.067 298.371 278.347 303.668 235.16C308.964 191.973 278.24 152.667 235.044 147.373C191.847 142.08 152.536 172.8 147.24 215.987Z" fill="#4B5C6E"/>
<path d="M201.719 222.667C200.112 235.76 209.436 247.694 222.544 249.294C235.652 250.907 247.581 241.587 249.188 228.48C250.796 215.373 241.472 203.454 228.364 201.84C215.256 200.24 203.327 209.56 201.719 222.667Z" fill="#282F39"/>
</svg>
