<svg width="528" height="279" viewBox="0 0 528 279" fill="none" xmlns="http://www.w3.org/2000/svg">
<path d="M378.595 133.873C379.232 134.433 379.818 135.063 380.376 135.709C381.217 136.694 382.152 137.53 383.516 136.875C384.981 136.166 385.636 134.821 385.471 133.247C385.387 132.44 385.015 131.54 384.489 130.925C382.116 128.137 380.028 124.896 377.129 122.801C366.834 115.369 356.209 110.583 345.227 108.847C345.034 109.68 344.86 110.511 344.605 111.352C343.989 113.391 343.169 115.269 342.189 117.012C343.89 117.227 345.599 117.494 347.323 117.845C359.21 120.266 369.508 125.932 378.595 133.873Z" fill="#D05127"/>
<path d="M520.651 77.9995C511.326 61.2072 497.94 49.5066 479.06 44.4809C472.238 42.6635 465.951 42.8407 460.06 44.6281C455.01 46.1571 450.252 48.8637 445.71 52.5556C444.95 51.9939 444.163 51.5283 443.385 51.0176C440.684 49.2572 437.887 47.8153 435.001 46.6558C430.245 44.7392 425.253 43.5376 420.077 42.8197C416.235 42.285 412.308 41.9816 408.292 41.8494C408.223 41.8494 408.154 41.8434 408.082 41.8404C409.854 37.8961 408.938 34.7089 406.529 31.6959C405.498 30.4102 404.42 29.2086 403.314 28.064C401.167 25.8441 398.86 23.9065 396.435 22.1942C392.593 19.4786 388.421 17.3968 383.972 15.8948C380.661 14.7774 377.204 13.9783 373.605 13.4976C373.136 13.4375 372.68 13.3354 372.205 13.2844C365.614 12.5604 359.384 13.1672 353.499 14.8615C345.529 17.1535 338.188 21.4552 331.438 27.2409C325.009 32.7533 321.053 39.7165 319.434 47.9145C319.374 48.2179 319.293 48.5153 319.238 48.8217C318.593 52.5256 318.451 56.3197 318.04 60.5042C317.265 60.6004 316.556 60.7235 315.835 60.7776C315.703 60.7866 315.583 60.8106 315.45 60.8226C318.448 62.562 321.338 64.2953 324.117 66.1818C325.376 67.0349 326.547 67.9812 327.719 68.9305C328.8 67.6027 328.755 66.0887 328.244 64.5386C324.748 53.8143 327.037 44.0934 334.376 35.9345C343.225 26.0934 354.809 21.1338 367.945 21.0948C378.462 21.0677 388.084 24.6395 396.09 31.822C397.634 33.2129 399.142 34.6458 400.665 36.0607C402.681 37.9412 403.408 40.2663 403.188 43.09C402.005 43.5827 400.89 44.0453 399.782 44.5109C384.575 50.8704 377.074 67.3834 382.365 82.9711C384.188 88.3543 386.868 93.2628 390.935 97.3212C393.347 99.7214 396.159 101.416 399.559 101.794C400.968 101.95 402.503 101.8 403.858 101.383C405.51 100.875 406.348 99.4901 406.309 97.6907C406.27 96.0355 405.324 94.9781 403.927 94.2782C403.501 94.0649 402.999 93.9117 402.527 93.8907C398.523 93.7014 396.06 91.2051 394.095 88.132C388.472 79.3753 386.756 70.3063 392.548 60.9248C396.408 54.6765 402.23 51.2129 409.458 50.6661C418.932 49.9482 427.959 52.1561 436.373 56.4428C440.97 58.7859 444.289 62.5079 445.491 67.7949C446.127 70.5946 445.527 72.9017 443.096 74.5419C440.946 75.9929 439.086 77.633 440.083 80.5259C441.087 83.4187 443.682 83.635 446.182 83.4187C455.975 82.5656 463.881 85.9902 470.105 93.5512C471.655 95.4317 473.482 97.0869 475.077 98.9374C478.444 102.855 481.467 107.015 482.587 112.186C483.368 115.817 485.906 119.043 485.08 123.057C485.011 123.395 485.456 124.116 485.765 124.182C486.264 124.29 487.06 124.19 487.369 123.85C489.139 121.869 490.193 119.552 489.932 116.829C489.694 114.403 489.319 111.988 489.04 109.566C488.463 104.528 486.216 100.181 483.062 96.387C479.322 91.884 475.398 87.4982 471.262 83.3526C466.921 79.0059 461.562 76.3984 455.407 75.5753C454.815 75.4942 454.229 75.377 453.328 75.2208C454.791 69.1137 453.734 63.5262 450.321 58.1581C453.788 56.3767 457.068 54.5383 460.478 52.9702C464.96 50.9094 469.724 50.6812 474.491 51.6965C487.246 54.4211 497.928 60.6845 506.207 70.8139C511.263 76.9992 515.643 83.605 518.001 91.3553C521.125 101.644 520.233 111.712 515.727 121.341C513.672 125.739 510.852 129.802 508.166 133.878C506.916 135.78 505.156 137.349 503.576 139.124C501.743 138.398 500.187 137.779 498.13 136.963C497.808 139.82 497.493 142.419 497.225 145.025C496.916 148.057 496.874 151.137 496.33 154.124C494.633 163.368 488.502 168.743 480.142 171.97C478.925 172.44 477.51 172.503 476.182 172.547C471.052 172.728 465.915 172.884 460.889 171.62C458.291 170.97 455.704 170.22 453.217 169.257C452.478 168.968 451.931 167.873 451.544 167.032C449.306 162.177 446.224 157.916 442.078 154.579C439.341 152.379 436.304 150.516 433.252 148.758C432.186 148.145 430.636 148.027 429.386 148.206C428.497 148.333 427.262 149.201 427.034 149.99C426.791 150.807 427.292 152.198 427.947 152.853C429.488 154.383 431.204 155.809 433.042 156.946C439.546 160.935 443.676 166.738 445.473 173.975C447.5 182.145 449.309 190.408 450.528 198.729C451.685 206.606 451.754 214.598 448.849 222.272C448.245 223.865 447.687 225.514 446.827 226.97C438.509 241.076 428.118 253.312 413.886 261.743C400.079 269.923 385.161 271.634 369.658 267.879C366.371 267.087 363.076 265.796 360.183 264.073C355.473 261.266 350.97 258.071 346.611 254.742C342.802 251.835 339.642 248.246 337.509 243.855C336.983 242.763 336.346 241.685 335.565 240.763C333.718 238.571 331.05 238.338 329.251 240.523C328.004 242.037 326.523 242.538 324.853 242.748C317.265 243.706 309.695 243.516 302.299 241.477C290.01 238.084 281.397 227.048 281.719 214.326C281.929 206.041 283.127 197.781 283.978 189.518C284.149 187.851 284.695 186.423 286.549 185.465C288.769 184.316 290.094 179.446 289.229 176.947C287.684 172.506 286.831 168.249 286.564 164.16C283.629 164.086 280.766 163.734 277.982 163.064C278.021 168.247 278.796 173.672 280.4 179.36C277.086 181.49 276.254 185.054 275.714 188.523C274.545 196.001 273.461 203.511 272.83 211.05C270.898 233.933 287.234 247.437 301.233 250.59C309.53 252.463 317.92 252.979 326.364 251.649C328.136 251.368 329.894 250.957 331.227 250.693C333.58 253.314 335.496 255.69 337.656 257.822C343.706 263.792 350.648 268.576 358.152 272.502C360.838 273.908 363.731 275.067 366.66 275.834C384.765 280.592 402.137 278.633 418.283 269.038C432.991 260.296 444.049 247.897 452.709 233.402C453.238 232.512 453.794 231.642 454.307 230.738C458.429 223.463 459.615 215.356 459.444 207.014C459.309 200.16 458.261 193.463 456.714 186.837C456.398 185.492 456.095 184.147 455.74 182.808C455.29 181.094 454.986 179.338 454.56 177.353C456.581 177.791 458.471 178.273 460.297 178.698C462.145 179.123 463.932 179.492 465.732 179.69C469.36 180.094 473.061 179.903 476.729 179.847C478.426 179.82 480.22 179.801 481.794 179.258C492.84 175.442 501.038 168.682 503.816 156.799C504.726 152.902 505.054 148.868 505.64 144.957C507.788 143.133 510.284 141.485 512.185 139.314C516.718 134.144 520.356 128.595 522.934 122.613C525.655 116.295 527.19 109.495 527.259 102.107C527.274 100.451 527.166 98.8323 527.001 97.2281C526.289 90.4301 524.015 84.0586 520.651 77.9995Z" fill="#D05127"/>
<path d="M340.546 83.2773C345.686 91.1808 347.293 99.7993 345.226 108.847C356.209 110.582 366.834 115.369 377.129 122.801C380.028 124.896 382.115 128.137 384.489 130.924C385.014 131.54 385.387 132.44 385.471 133.247C385.636 134.821 384.981 136.166 383.515 136.874C382.151 137.53 381.217 136.694 380.376 135.709C379.817 135.063 379.232 134.432 378.595 133.872C369.508 125.932 359.21 120.266 347.323 117.845C345.599 117.493 343.889 117.227 342.189 117.012C339.678 121.486 335.989 124.993 331.092 127.448C328.587 128.704 325.986 129.775 323.357 130.968C323.201 132.988 323.21 135.075 322.858 137.099C320.53 150.345 308.331 161.766 294.459 163.712C291.77 164.089 289.142 164.223 286.564 164.159C286.831 168.249 287.685 172.506 289.229 176.947C290.094 179.446 288.769 184.316 286.549 185.464C284.696 186.423 284.149 187.851 283.978 189.517C283.128 197.781 281.929 206.041 281.719 214.326C281.397 227.048 290.01 238.084 302.299 241.477C309.695 243.515 317.265 243.706 324.853 242.748C326.523 242.538 328.004 242.037 329.251 240.523C331.05 238.338 333.718 238.57 335.565 240.763C336.346 241.685 336.983 242.763 337.509 243.855C339.642 248.246 342.802 251.835 346.611 254.741C350.97 258.071 355.473 261.266 360.183 264.072C363.076 265.796 366.371 267.087 369.658 267.879C385.161 271.634 400.079 269.923 413.886 261.743C428.119 253.312 438.509 241.076 446.828 226.97C447.687 225.513 448.245 223.865 448.849 222.272C451.754 214.597 451.685 206.606 450.528 198.729C449.309 190.407 447.5 182.145 445.473 173.975C443.676 166.738 439.546 160.935 433.042 156.945C431.204 155.808 429.488 154.383 427.947 152.853C427.293 152.197 426.791 150.806 427.034 149.99C427.262 149.201 428.497 148.333 429.386 148.205C430.636 148.027 432.186 148.144 433.252 148.758C436.305 150.516 439.342 152.378 442.078 154.578C446.224 157.916 449.306 162.176 451.544 167.032C451.931 167.873 452.478 168.968 453.217 169.256C455.704 170.22 458.291 170.97 460.889 171.62C465.915 172.884 471.052 172.728 476.183 172.547C477.51 172.503 478.925 172.439 480.142 171.97C488.502 168.743 494.633 163.368 496.33 154.124C496.874 151.137 496.916 148.056 497.226 145.025C497.493 142.419 497.808 139.82 498.13 136.962C500.188 137.779 501.744 138.397 503.576 139.124C505.156 137.349 506.917 135.779 508.166 133.878C510.852 129.802 513.673 125.739 515.727 121.341C520.233 111.712 521.125 101.644 518.001 91.3551C515.643 83.6048 511.263 76.9989 506.208 70.8137C497.929 60.6842 487.246 54.4209 474.491 51.6963C469.724 50.6809 464.96 50.9092 460.478 52.9699C457.068 54.538 453.788 56.3765 450.321 58.1578C453.734 63.526 454.791 69.1134 453.328 75.2206C454.229 75.3768 454.815 75.4939 455.407 75.575C461.562 76.3981 466.921 79.0056 471.262 83.3524C475.399 87.4979 479.322 91.8838 483.062 96.3868C486.216 100.181 488.463 104.528 489.04 109.565C489.319 111.988 489.695 114.403 489.932 116.828C490.193 119.552 489.139 121.869 487.37 123.849C487.06 124.189 486.264 124.289 485.765 124.182C485.456 124.116 485.011 123.395 485.08 123.057C485.907 119.043 483.368 115.816 482.587 112.186C481.467 107.015 478.445 102.854 475.077 98.9372C473.482 97.0867 471.656 95.4315 470.106 93.551C463.881 85.9899 455.975 82.5654 446.182 83.4185C443.682 83.6348 441.087 83.4185 440.084 80.5257C439.086 77.6328 440.946 75.9926 443.097 74.5417C445.527 72.9015 446.128 70.5944 445.491 67.7947C444.289 62.5076 440.97 58.7857 436.374 56.4426C427.959 52.1559 418.932 49.9479 409.458 50.6659C402.23 51.2126 396.408 54.6762 392.548 60.9246C386.757 70.306 388.472 79.3751 394.095 88.1318C396.06 91.2049 398.523 93.7012 402.528 93.8904C402.999 93.9115 403.501 94.0647 403.927 94.278C405.324 94.9779 406.271 96.0353 406.31 97.6905C406.349 99.4899 405.511 100.875 403.858 101.382C402.504 101.8 400.968 101.95 399.56 101.794C396.159 101.415 393.347 99.7212 390.935 97.321C386.868 93.2626 384.188 88.3541 382.365 82.9709C377.075 67.3831 384.576 50.8702 399.782 44.5107C400.89 44.0451 402.005 43.5825 403.188 43.0898C403.408 40.266 402.681 37.9409 400.665 36.0604C399.142 34.6456 397.634 33.2126 396.09 31.8218C388.084 24.6392 378.462 21.0674 367.945 21.0945C354.809 21.1335 343.226 26.0932 334.376 35.9343C327.037 44.0931 324.748 53.8141 328.245 64.5384C328.755 66.0884 328.8 67.6024 327.719 68.9302C332.736 72.9916 337.025 77.8491 340.546 83.2773Z" fill="white"/>
<path d="M286.564 164.16C289.141 164.223 291.77 164.089 294.459 163.712C308.331 161.766 320.53 150.345 322.858 137.1C323.21 135.076 323.201 132.988 323.357 130.968C325.986 129.775 328.587 128.705 331.092 127.448C335.989 124.994 339.678 121.486 342.189 117.012C343.168 115.269 343.988 113.391 344.604 111.352C344.86 110.512 345.034 109.68 345.226 108.847C347.293 99.7996 345.686 91.1811 340.546 83.2776C337.025 77.8493 332.735 72.9919 327.719 68.9305C326.547 67.9812 325.376 67.035 324.117 66.1818C321.338 64.2953 318.448 62.562 315.45 60.8227C312.585 59.1615 309.623 57.4912 306.556 55.6738C307.403 52.826 308.613 49.8731 309.127 46.8C310.413 39.0797 308.628 31.8341 303.99 25.6458C298.625 18.4993 291.941 12.7677 283.151 10.1242C279.063 8.89553 274.921 7.75401 270.733 6.97598C260.646 5.09848 251.552 7.20429 243.886 14.3478C243.646 14.5701 243.24 14.6181 243.186 14.6392C238.692 11.533 234.454 8.42692 230.044 5.59114C221.684 0.216989 212.588 -0.873469 203.386 0.598491C201.794 0.853831 200.199 1.16323 198.601 1.56276C188.808 4.02304 179.91 8.89552 172.136 15.3902C161.291 24.4412 156.881 36.4963 157.933 50.3087C158.696 60.348 163.529 68.9185 169.841 76.6448C170.595 77.561 171.304 78.5102 172.169 79.6157C171.123 80.0483 170.36 80.3577 169.597 80.6821C164.572 82.827 160.249 85.8941 156.659 90.0636C148.344 99.7395 145.836 111.382 147.473 123.38C149.57 138.723 157.437 151.381 170 160.691C176.726 165.675 184.374 167.22 192.602 164.856C193.521 164.597 194.464 164.426 195.369 164.221C196.943 166.606 198.361 168.88 199.908 171.066C201.845 173.814 204.122 176.012 206.712 177.715C209.671 179.666 213.044 180.964 216.859 181.592C222.501 182.521 228.055 182.147 233.613 181.069C247.41 178.395 256.164 170.117 260.486 156.909C260.697 156.256 260.949 155.62 261.156 155.053C261.517 155.053 261.664 155.009 261.757 155.058C262.075 155.234 262.391 155.422 262.679 155.645C267.471 159.329 272.583 161.764 277.982 163.064C280.766 163.734 283.629 164.086 286.564 164.16ZM263.4 145.93C265.2 144.954 266.828 144.179 268.342 143.216C269.679 142.37 270.937 141.38 272.133 140.336C276.197 136.792 278.51 132.614 276.413 126.9C273.04 127.825 269.877 129.257 267.359 132.203C262.25 138.185 255.587 139.075 248.317 137.402C245.842 136.836 243.802 135.545 242.39 133.389C240.519 130.528 238.497 127.742 236.881 124.74C235.923 122.963 235.226 120.862 235.084 118.86C234.43 109.671 234.264 100.503 238.942 92.0583C239.173 91.6377 239.455 91.088 239.359 90.6824C239.071 89.4448 238.93 87.8617 238.097 87.1617C237.512 86.6691 235.697 87.0656 234.781 87.6304C231.236 89.8053 229.698 93.4521 228.518 97.2041C226.935 102.254 226.235 107.454 226.445 112.761C226.499 114.208 226.451 115.66 226.451 117.413C223.267 116.061 220.891 116.567 218.896 118.985C218.316 119.698 217.268 120.026 216.448 120.549C212.81 122.877 210.217 126.011 209.094 130.238C208.457 132.626 208.547 134.929 210.614 136.613C212.687 138.305 214.922 137.909 217.136 136.748C220.912 134.763 223.967 132.052 225.991 128.247C226.427 127.424 226.92 126.63 227.487 125.647C229.506 129.008 231.483 132.078 233.243 135.261C236.953 141.964 242.555 145.769 250.135 146.714C250.726 146.79 251.312 146.922 252.099 147.064C252.649 151.704 251.192 155.767 249.083 159.654C244.424 168.254 236.617 171.633 227.379 172.562C226.166 172.682 224.94 172.723 223.717 172.743C214.549 172.875 208.836 170.562 203.612 159.36C203.257 158.588 203.065 157.735 202.698 156.97C201.139 153.728 198.532 152.701 195.101 153.958C193.614 154.505 192.166 155.18 190.661 155.664C185.137 157.434 179.898 156.569 175.347 153.137C164.707 145.116 158.038 134.342 156.455 121.209C155.427 112.683 157.134 104.179 162.556 96.8647C166.933 90.9678 172.917 87.7415 179.742 85.7228C180.559 85.4825 181.43 85.3804 182.226 85.083C184.758 84.1397 185.014 82.9111 184.086 80.2856C183.106 77.5219 181.307 75.6504 179.258 73.6498C173.016 67.5396 168.438 60.1798 167.032 51.5313C165.217 40.3504 168.453 30.3351 176.897 22.6058C183.836 16.2613 192.103 11.6532 201.178 9.40622C209.553 7.33346 218.196 7.42658 226.015 12.248C229.858 14.6212 233.609 17.1535 237.452 19.5207C238.963 20.4489 239.383 21.5304 238.806 23.1976C238.131 25.1442 237.614 27.1448 236.929 29.4669C229.584 28.8932 222.861 30.5454 217.607 35.8955C212.687 32.6992 207.748 30.4342 202.146 29.9476C200.938 29.8424 199.685 29.8484 198.499 30.0377C195.369 30.5424 193.581 32.6031 193.335 35.7843C193.14 38.3407 193.942 40.5997 195.429 42.6425C197.501 45.4842 200.181 47.557 203.452 48.8217C205.384 49.5727 207.358 50.2126 209.475 50.9606C209.475 52.2312 209.421 53.55 209.493 54.8658C209.547 55.9502 209.587 57.0857 209.929 58.098C210.53 59.8854 212.194 60.9939 213.837 60.8647C215.592 60.7296 216.859 59.7593 217.415 58.1401C217.845 56.8844 217.826 55.4756 218.238 54.2049C219.235 51.0867 219.977 47.8063 221.521 44.9645C224.498 39.4943 230.846 37.043 236.959 38.4819C237.431 38.5931 237.878 38.8154 238.35 38.9235C242.21 39.8097 244.493 38.3047 245.196 34.3905C245.607 32.1104 245.788 29.7733 246.371 27.5413C248.263 20.2356 253.631 15.1859 261.15 14.9155C275.377 14.4019 288.051 18.3972 297.126 30.1398C300.118 34.012 302.092 38.56 301.827 43.7239C301.794 44.3337 301.857 44.9556 301.749 45.5534C301.272 48.2479 300.743 50.9365 300.235 53.6281C296.435 53.6281 292.32 53.6581 288.207 53.6191C281.322 53.553 274.881 55.5266 268.801 58.4195C265.911 59.7983 263.487 62.2195 260.985 64.3284C259.708 65.4068 259.801 67.7679 260.862 69.0326C261.913 70.2853 263.175 70.2973 265.07 69.0687C265.476 68.8043 265.927 68.57 266.266 68.2275C271.472 63.0186 278.363 61.9552 285.107 61.2282C293.095 60.3631 300.788 61.6488 308.13 65.6291C317.22 70.5526 325.012 76.7499 331.276 84.9748C335.214 90.1387 337.344 95.8734 337.118 102.329C336.851 109.974 333.658 116.017 326.538 119.457C324.129 120.62 321.576 121.512 319.037 122.363C313.798 124.124 312.585 126.055 313.798 131.321C314.369 133.819 314.033 136.215 313.083 138.493C309.016 148.301 301.551 153.757 291.082 154.907C283.019 155.794 275.56 153.845 268.837 149.196C267.17 148.042 265.359 147.098 263.4 145.93Z" fill="#D05127"/>
<path d="M291.082 154.907C301.551 153.757 309.016 148.3 313.083 138.493C314.033 136.215 314.369 133.819 313.798 131.32C312.585 126.055 313.798 124.123 319.037 122.363C321.576 121.512 324.129 120.62 326.538 119.457C333.658 116.017 336.851 109.973 337.118 102.329C337.344 95.8732 335.214 90.1386 331.276 84.9747C325.012 76.7497 317.22 70.5525 308.13 65.6289C300.788 61.6486 293.095 60.3629 285.107 61.2281C278.363 61.955 271.472 63.0184 266.266 68.2274C265.927 68.5698 265.476 68.8041 265.07 69.0685C263.175 70.2971 261.913 70.2851 260.862 69.0325C259.801 67.7678 259.708 65.4066 260.985 64.3282C263.487 62.2194 265.911 59.7982 268.801 58.4193C274.881 55.5265 281.322 53.5529 288.207 53.6189C292.32 53.658 296.435 53.628 300.235 53.628C300.743 50.9364 301.272 48.2478 301.749 45.5532C301.857 44.9554 301.794 44.3336 301.827 43.7238C302.092 38.5599 300.118 34.0118 297.126 30.1397C288.051 18.397 275.377 14.4017 261.15 14.9154C253.631 15.1858 248.263 20.2355 246.37 27.5412C245.788 29.7732 245.607 32.1103 245.196 34.3903C244.493 38.3045 242.21 39.8096 238.35 38.9234C237.878 38.8152 237.431 38.5929 236.959 38.4818C230.846 37.0429 224.498 39.4941 221.521 44.9644C219.977 47.8062 219.235 51.0866 218.238 54.2047C217.826 55.4754 217.844 56.8843 217.415 58.14C216.859 59.7591 215.591 60.7294 213.837 60.8646C212.194 60.9938 210.53 59.8853 209.929 58.0979C209.587 57.0855 209.547 55.95 209.493 54.8656C209.421 53.5498 209.475 52.2311 209.475 50.9604C207.358 50.2124 205.384 49.5725 203.452 48.8215C200.181 47.5569 197.501 45.4841 195.429 42.6423C193.942 40.5996 193.14 38.3406 193.335 35.7842C193.581 32.6029 195.369 30.5422 198.499 30.0375C199.685 29.8483 200.938 29.8423 202.146 29.9474C207.748 30.4341 212.687 32.6991 217.607 35.8953C222.861 30.5452 229.584 28.893 236.929 29.4668C237.614 27.1447 238.13 25.144 238.806 23.1974C239.383 21.5302 238.963 20.4488 237.452 19.5205C233.609 17.1534 229.857 14.621 226.015 12.2479C218.196 7.42643 209.553 7.33331 201.178 9.40607C192.103 11.6531 183.836 16.2612 176.897 22.6056C168.453 30.3349 165.217 40.3503 167.032 51.5312C168.438 60.1797 173.016 67.5395 179.258 73.6496C181.307 75.6503 183.106 77.5218 184.086 80.2854C185.014 82.9109 184.758 84.1396 182.226 85.0828C181.43 85.3802 180.559 85.4824 179.742 85.7227C172.917 87.7414 166.933 90.9677 162.556 96.8645C157.134 104.179 155.427 112.682 156.455 121.209C158.038 134.342 164.707 145.115 175.347 153.136C179.898 156.569 185.137 157.434 190.661 155.664C192.166 155.18 193.614 154.505 195.101 153.958C198.532 152.701 201.139 153.728 202.698 156.969C203.065 157.735 203.257 158.588 203.612 159.36C208.835 170.562 214.549 172.875 223.717 172.743C224.94 172.723 226.166 172.682 227.379 172.561C236.617 171.633 244.424 168.254 249.083 159.654C251.192 155.767 252.649 151.704 252.099 147.064C251.312 146.922 250.726 146.79 250.135 146.714C242.555 145.768 236.953 141.964 233.243 135.261C231.483 132.078 229.506 129.008 227.487 125.646C226.92 126.629 226.427 127.424 225.991 128.247C223.967 132.052 220.912 134.762 217.136 136.747C214.922 137.909 212.687 138.305 210.614 136.613C208.547 134.929 208.457 132.626 209.094 130.237C210.217 126.011 212.81 122.876 216.448 120.549C217.268 120.026 218.316 119.698 218.896 118.985C220.891 116.567 223.267 116.061 226.451 117.413C226.451 115.66 226.499 114.208 226.445 112.76C226.235 107.454 226.935 102.254 228.518 97.204C229.698 93.452 231.236 89.8051 234.781 87.6302C235.697 87.0655 237.512 86.6689 238.097 87.1616C238.93 87.8615 239.071 89.4446 239.359 90.6823C239.455 91.0878 239.173 91.6375 238.942 92.0581C234.264 100.502 234.43 109.671 235.084 118.86C235.226 120.862 235.923 122.962 236.881 124.74C238.497 127.741 240.519 130.528 242.39 133.389C243.802 135.545 245.842 136.835 248.317 137.402C255.587 139.075 262.25 138.185 267.359 132.203C269.877 129.257 273.04 127.824 276.413 126.9C278.51 132.614 276.197 136.792 272.133 140.336C270.937 141.38 269.679 142.37 268.342 143.216C266.828 144.179 265.2 144.954 263.4 145.93C265.359 147.098 267.17 148.042 268.837 149.195C275.56 153.845 283.019 155.794 291.082 154.907Z" fill="white"/>
<path d="M72.4956 219.014H69.9933C66.5807 219.014 63.7329 221.859 63.7329 225.272C63.7329 228.684 66.5807 231.53 69.9933 231.53H70.5279H72.4956C75.9081 231.53 78.7529 228.684 78.7529 225.272C78.7529 224.355 78.5336 223.487 78.1671 222.695C77.1698 220.541 74.9919 219.014 72.4956 219.014Z" fill="#D05127"/>
<path d="M118.706 211.504C110.631 211.504 110.631 224.02 118.706 224.02C126.778 224.02 126.778 211.504 118.706 211.504Z" fill="#D05127"/>
<path d="M136.228 231.53C128.156 231.53 128.156 244.047 136.228 244.047C144.3 244.047 144.3 231.53 136.228 231.53Z" fill="#D05127"/>
<path d="M6.05606 221.517C14.1278 221.517 14.1278 209 6.05606 209C-2.01869 209 -2.01869 221.517 6.05606 221.517Z" fill="#D05127"/>
</svg>
