<svg width="318" height="200" viewBox="0 0 318 200" fill="none" xmlns="http://www.w3.org/2000/svg">
<path d="M314.386 117.868C314.981 116.222 315.48 114.564 315.918 112.897C317.715 106.047 318.072 99.018 315.991 91.9376C314.786 87.8401 313.476 83.7487 311.839 79.8164C307.985 70.5671 301.451 64.2137 291.676 61.5792C291.439 61.5161 291.229 61.426 290.991 61.3689C290.673 61.2908 290.409 60.9754 290.36 60.9393C290.46 57.2264 290.589 53.6246 290.67 50.0408C290.709 48.3556 290.763 46.6673 290.751 44.9881C290.673 33.3266 285.119 24.0262 276.933 16.4561C269.522 9.60396 260.573 4.81558 250.888 1.85664C245.889 0.327607 241.026 -0.234094 236.328 0.087334C228.331 0.634062 220.806 3.74614 213.882 9.05721C205.897 15.1824 201.358 23.915 198.348 33.4257C197.985 34.5582 197.579 35.6696 197.128 36.9944C196.191 36.3606 195.515 35.889 194.827 35.4263C190.285 32.3953 185.353 30.4487 179.9 29.7247C167.251 28.0485 156.133 32.3172 146.98 40.2448C135.279 50.3863 128.983 63.8953 128.054 79.5041C127.559 87.8642 130.446 95.1128 136.922 100.709C137.64 101.334 138.301 102.034 138.971 102.677C137.832 105.299 136.703 107.733 135.721 110.217C133.056 116.922 133.245 123.537 136.168 130.167C136.976 131.999 137.953 133.702 138.995 135.36C140.936 138.436 143.207 141.269 145.772 143.916C149.71 147.977 153.97 150.84 158.521 152.597C165.274 155.205 172.676 155.358 180.693 153.207C181.351 153.027 182.027 152.892 182.613 152.751C182.814 153.054 182.931 153.156 182.937 153.258C182.962 153.619 182.979 153.991 182.949 154.352C182.478 160.465 183.271 166.145 185.193 171.441C187.002 176.425 189.808 181.063 193.572 185.371C202.782 195.921 219.015 199.892 231.374 194.599C233.266 193.791 235.009 192.638 236.781 191.664C239.223 193.217 241.539 194.807 243.961 196.215C250.536 200.049 257.539 200.872 264.826 198.733C274.818 195.804 281.955 189.405 286.116 179.988C289.342 172.688 291.304 164.905 291.451 156.887C291.568 150.314 290.961 143.73 290.649 136.433C291.965 136.039 293.346 135.697 294.734 135.321C296.338 134.889 297.952 134.408 299.484 133.738C306.645 130.59 311.74 125.135 314.386 117.868ZM288.904 130.025C286.825 126.841 284.551 123.407 282.331 119.947C278.624 114.143 273.451 109.835 267.701 106.327C264.974 104.66 261.621 103.951 258.485 103.01C256.887 102.533 254.955 103.9 254.481 105.48C254.006 107.045 254.682 108.105 256.752 109.021C257.196 109.22 257.635 109.463 258.104 109.562C265.316 111.076 269.972 116.261 274.268 121.509C279.363 127.727 282.487 134.868 283.172 143.192C284.019 153.499 283.088 163.415 279.627 173.154C277.455 179.27 273.817 184.187 268.29 187.531C261.741 191.487 254.937 192.118 248.163 188.036C245.871 186.657 243.729 185.004 241.627 183.346C237.292 179.919 235.012 179.958 231.263 183.854C229.487 185.698 227.298 186.729 224.867 187.179C214.428 189.135 205.78 185.864 199.096 177.729C193.947 171.462 191.496 164.154 191.718 155.98C191.772 153.958 191.571 151.924 191.478 149.641C193.277 150.615 194.821 151.558 196.449 152.297C197.891 152.952 199.408 153.469 200.934 153.898C206.125 155.361 210.89 155.019 214.525 150.137C211.911 147.821 208.982 145.952 205.137 145.454C197.336 144.444 192.944 139.353 190.372 132.35C189.498 129.971 189.459 127.556 190.496 125.198C191.865 122.065 193.091 118.847 194.725 115.855C195.686 114.08 197.065 112.35 198.666 111.136C206.005 105.564 213.587 100.415 223.215 99.7089C223.693 99.6759 224.309 99.6128 224.594 99.3094C225.474 98.3902 226.721 97.4079 226.853 96.3294C226.946 95.5664 225.624 94.2657 224.651 93.8061C220.893 92.0277 216.994 92.7336 213.206 93.8C208.111 95.233 203.38 97.492 199.048 100.562C197.864 101.403 196.621 102.154 195.155 103.112C194.548 99.7059 192.824 97.9937 189.708 97.6482C188.792 97.5491 187.948 96.8491 187.062 96.4526C183.121 94.6742 179.083 94.2206 174.929 95.5874C172.58 96.3625 170.699 97.6992 170.42 100.349C170.137 103.01 171.69 104.663 173.871 105.882C177.596 107.958 181.538 109.033 185.83 108.652C186.759 108.568 187.693 108.547 188.828 108.481C187.116 112.01 185.626 115.345 183.923 118.562C180.339 125.33 180.219 132.101 183.571 138.965C183.83 139.503 184.04 140.065 184.355 140.801C180.766 143.799 176.566 144.799 172.159 145.162C162.411 145.965 155.316 141.269 149.488 134.042C148.722 133.092 148.016 132.086 147.331 131.074C142.209 123.468 141.02 117.42 147.547 106.928C147.998 106.204 148.608 105.579 149.049 104.849C150.906 101.773 150.344 99.027 147.415 96.8461C146.144 95.8969 144.79 95.0558 143.558 94.0584C139.055 90.4026 136.919 85.5421 137.304 79.8555C138.205 66.5598 143.576 55.0845 153.709 46.5802C160.284 41.0589 168.341 37.8386 177.425 38.3793C184.761 38.8179 190.73 42.0652 196.152 46.6793C196.801 47.2321 197.366 47.9019 198.051 48.4066C200.225 50.0108 201.388 49.5541 203.079 47.3402C204.861 45.0121 205.44 42.4797 205.999 39.674C207.699 31.1066 211.361 23.2451 217.835 17.3392C226.207 9.70605 236.361 6.94547 247.445 9.79025C256.553 12.1334 264.932 16.5342 271.775 22.9027C278.092 28.7815 282.742 36.0722 282.977 45.2554C283.088 49.7704 283.022 54.2945 283.139 58.8095C283.187 60.5819 282.511 61.5251 280.796 61.9487C278.801 62.4473 276.839 63.1142 274.529 63.8082C270.988 57.3435 265.932 52.6152 258.575 51.1403C258.563 45.2734 257.761 39.8993 255.103 34.9427C254.532 33.8763 253.847 32.8279 253.036 31.9387C250.903 29.5926 248.199 29.2231 245.403 30.7551C243.153 31.9898 241.702 33.9003 240.8 36.2584C239.554 39.5478 239.286 42.9244 240.01 46.3549C240.44 48.3856 240.987 50.3863 241.521 52.5672C240.455 53.2611 239.319 53.94 238.253 54.718C237.379 55.3579 236.451 56.0097 235.79 56.8508C234.621 58.3318 234.6 60.3265 235.61 61.6362C236.679 63.0301 238.184 63.5588 239.842 63.1412C241.134 62.8168 242.303 62.0268 243.588 61.6783C246.745 60.8102 249.9 59.6386 253.123 59.3773C259.332 58.8786 264.851 62.8588 266.992 68.7617C267.161 69.2153 267.215 69.714 267.386 70.1676C268.753 73.8836 271.258 74.974 274.923 73.4239C277.056 72.5197 279.11 71.3963 281.294 70.6573C288.453 68.2481 295.614 69.9844 299.952 76.1305C308.156 87.762 311.74 100.556 306.87 114.576C305.263 119.205 302.533 123.341 298.066 125.94C297.537 126.249 297.047 126.64 296.495 126.877C293.971 127.95 291.436 128.977 288.904 130.025Z" fill="#D05127"/>
<path d="M298.066 125.94C302.533 123.341 305.264 119.205 306.871 114.576C311.74 100.556 308.156 87.7621 299.952 76.1306C295.615 69.9844 288.453 68.2481 281.295 70.6573C279.111 71.3963 277.056 72.5198 274.923 73.424C271.258 74.9741 268.753 73.8836 267.386 70.1677C267.215 69.714 267.161 69.2154 266.993 68.7618C264.851 62.8589 259.332 58.8786 253.123 59.3773C249.9 59.6387 246.746 60.8102 243.588 61.6784C242.303 62.0268 241.134 62.8168 239.842 63.1413C238.184 63.5588 236.679 63.0301 235.61 61.6363C234.6 60.3265 234.621 58.3319 235.79 56.8509C236.451 56.0098 237.379 55.3579 238.253 54.7181C239.32 53.94 240.455 53.2611 241.522 52.5672C240.987 50.3863 240.44 48.3857 240.011 46.355C239.287 42.9244 239.554 39.5479 240.801 36.2585C241.702 33.9003 243.153 31.9898 245.403 30.7552C248.199 29.2231 250.903 29.5926 253.036 31.9388C253.847 32.8279 254.532 33.8763 255.103 34.9428C257.761 39.8994 258.563 45.2735 258.575 51.1403C265.932 52.6153 270.988 57.3436 274.53 63.8082C276.84 63.1143 278.801 62.4474 280.796 61.9487C282.511 61.5252 283.187 60.5819 283.139 58.8095C283.022 54.2945 283.088 49.7705 282.977 45.2555C282.743 36.0722 278.092 28.7815 271.775 22.9027C264.932 16.5342 256.554 12.1334 247.445 9.7903C236.361 6.94551 226.207 9.70609 217.835 17.3393C211.361 23.2451 207.7 31.1066 205.999 39.6741C205.441 42.4798 204.861 45.0121 203.079 47.3402C201.388 49.5542 200.226 50.0108 198.051 48.4067C197.366 47.902 196.801 47.2321 196.152 46.6794C190.73 42.0652 184.761 38.8179 177.425 38.3793C168.341 37.8386 160.284 41.0589 153.709 46.5803C143.576 55.0846 138.205 66.5598 137.304 79.8556C136.919 85.5421 139.055 90.4026 143.558 94.0585C144.79 95.0558 146.145 95.8969 147.415 96.8462C150.344 99.0271 150.906 101.773 149.049 104.849C148.608 105.579 147.998 106.204 147.547 106.928C141.02 117.421 142.209 123.468 147.331 131.074C148.016 132.086 148.722 133.092 149.488 134.042C155.316 141.269 162.411 145.965 172.159 145.163C176.566 144.799 180.766 143.799 184.356 140.801C184.04 140.065 183.83 139.503 183.571 138.965C180.219 132.101 180.339 125.33 183.923 118.562C185.626 115.345 187.116 112.01 188.828 108.481C187.693 108.547 186.759 108.568 185.83 108.652C181.538 109.033 177.597 107.958 173.872 105.882C171.691 104.663 170.138 103.01 170.42 100.349C170.699 97.6993 172.58 96.3625 174.929 95.5875C179.083 94.2207 183.121 94.6743 187.062 96.4527C187.948 96.8492 188.792 97.5491 189.709 97.6483C192.824 97.9937 194.548 99.706 195.155 103.112C196.621 102.154 197.864 101.403 199.048 100.562C203.38 97.4921 208.111 95.233 213.206 93.8001C216.994 92.7337 220.893 92.0278 224.651 93.8061C225.624 94.2658 226.946 95.5665 226.853 96.3295C226.721 97.4079 225.474 98.3902 224.594 99.3094C224.309 99.6128 223.693 99.676 223.215 99.709C213.587 100.415 206.005 105.564 198.667 111.136C197.065 112.35 195.687 114.08 194.725 115.856C193.091 118.847 191.866 122.065 190.496 125.198C189.459 127.556 189.498 129.971 190.373 132.35C192.944 139.353 197.336 144.445 205.137 145.454C208.982 145.953 211.911 147.821 214.525 150.137C210.89 155.019 206.126 155.361 200.935 153.898C199.409 153.469 197.892 152.952 196.45 152.297C194.821 151.558 193.277 150.615 191.478 149.641C191.571 151.925 191.772 153.958 191.718 155.98C191.496 164.154 193.947 171.463 199.096 177.729C205.78 185.864 214.429 189.135 224.867 187.179C227.298 186.729 229.488 185.698 231.263 183.854C235.012 179.958 237.292 179.919 241.627 183.346C243.73 185.005 245.871 186.657 248.163 188.036C254.937 192.118 261.742 191.487 268.29 187.531C273.818 184.187 277.455 179.27 279.627 173.154C283.088 163.415 284.019 153.499 283.172 143.192C282.487 134.868 279.363 127.727 274.268 121.509C269.972 116.261 265.316 111.076 258.104 109.562C257.635 109.463 257.196 109.22 256.752 109.021C254.682 108.105 254.006 107.045 254.481 105.48C254.956 103.9 256.887 102.533 258.485 103.01C261.621 103.951 264.974 104.66 267.701 106.327C273.451 109.835 278.624 114.143 282.331 119.947C284.551 123.408 286.825 126.841 288.904 130.025C291.436 128.977 293.971 127.95 296.495 126.877C297.048 126.64 297.537 126.249 298.066 125.94Z" fill="white"/>
<path d="M65.7427 174.602C72.6529 178.774 79.1222 168.058 72.212 163.886C65.3018 159.714 58.8325 170.431 65.7427 174.602Z" fill="#D05127"/>
<path d="M103.628 136.066C110.538 140.238 117.007 129.522 110.097 125.35C103.187 121.179 96.7178 131.895 103.628 136.066Z" fill="#D05127"/>
<path d="M9.57817 146.546C2.66796 142.374 -3.79982 153.088 3.11039 157.26C10.0206 161.431 16.4884 150.718 9.57817 146.546Z" fill="#D05127"/>
</svg>
