<svg width="334" height="283" viewBox="0 0 334 283" fill="none" xmlns="http://www.w3.org/2000/svg">
<path d="M210.891 18.3545C204.126 19.9016 198.812 24.0651 193.906 28.7784C192.996 29.6496 192.083 30.5237 191.341 31.2387C188.982 26.5585 187.135 21.9864 184.534 17.8949C179.433 9.87724 172.926 3.39461 163.259 0.997414C162.571 0.826186 161.958 0.339561 161.313 0.00010944C159.603 0.00010944 157.891 0.00010944 156.18 0.00010944C154.703 0.498773 153.266 1.17765 151.75 1.46303C144.602 2.80282 137.772 4.99272 131.508 8.75073C124.898 12.713 120.415 18.2043 119.055 25.9997C118.792 27.5047 118.756 28.9677 118.837 30.4036C118.973 32.8669 119.565 35.228 120.781 37.4269C117.892 38.3221 115.051 38.7817 112.616 40.0284C102.148 45.4025 97.3713 54.4686 96.8188 65.9018C96.4472 73.7423 98.5203 81.1441 101.703 88.2606C102.119 89.1919 102.451 90.1621 102.808 91.0874C102.3 91.3187 102.192 91.3968 102.075 91.4148C101.234 91.544 100.383 91.6401 99.542 91.7843C89.3917 93.5086 82.0629 98.6755 79.4176 109.024C78.2099 113.732 77.5692 118.595 76.8506 123.416C76.3958 126.484 76.9825 129.298 80.3611 130.896C79.3932 131.783 78.6693 132.419 77.9753 133.092C72.4894 138.445 69.243 144.934 69.0276 152.591C68.9057 156.953 69.1745 161.435 70.0937 165.686C72.6802 177.66 78.9054 187.6 87.1709 196.272C88.0288 197.174 88.8871 198.075 89.788 198.946C100.652 209.49 114.146 212.5 128.648 211.743C137.156 211.298 145.145 208.439 152.63 204.302C153.237 203.966 153.887 203.704 154.811 203.266C155.002 204.6 155.183 205.645 155.29 206.705C156.351 216.862 161.241 224.504 170.529 228.872C174.221 230.611 176.969 233.055 179.406 236.204C183.765 241.837 188.664 246.985 194.804 250.73C201.284 254.686 208.271 256.511 215.853 254.803C232.649 251.014 241.216 232.561 239.51 219.164C239.098 215.923 238.281 212.731 237.71 209.842C242.454 205.87 247.014 202.052 251.88 197.985C257.933 201.547 264.227 204.236 270.769 204.972C273.013 205.224 275.287 205.242 277.594 204.987C281.016 204.606 284.507 203.638 288.063 201.893C299.16 196.447 304.895 187.642 306.331 176.248C306.559 174.436 306.688 172.565 306.703 170.624C307.788 170.195 308.8 169.807 309.797 169.387C310.816 168.957 311.828 168.53 312.81 168.038C314.231 167.326 315.574 166.554 316.848 165.731C321.255 162.883 324.736 159.344 327.38 155.199C329.987 151.113 331.79 146.445 332.67 141.137C332.895 139.779 332.97 138.391 333 137.001C333.048 134.729 332.94 132.431 332.886 130.16C332.796 126.604 332.399 123.143 331.724 119.776C331.057 116.453 330.098 113.227 328.786 110.124C327.293 106.603 325.376 103.227 322.946 100.027C322.573 99.5376 322.192 99.066 321.813 98.5884C319.921 96.2002 317.947 93.9772 315.868 91.9525C312.609 88.7773 309.088 86.1097 305.222 84.091C302.347 82.592 299.289 81.4385 295.991 80.7326C292.338 79.9515 288.403 79.6902 284.128 80.0477C281.743 80.2459 279.433 80.5674 277.18 81.036C272.926 81.9222 268.895 83.3731 265.086 85.7703C263.187 86.9569 261.232 88.0443 258.72 89.5193C258.946 88.1555 259.108 87.2272 259.237 86.4101C259.288 86.1037 259.336 85.8094 259.378 85.521C260.361 79.1375 261.22 72.7149 260.796 66.3344C260.619 63.6218 260.231 60.9152 259.486 58.2236C259.261 57.4065 259.003 56.6015 258.75 55.7964C257.341 51.2513 255.548 46.8595 253.364 42.6749C252.346 40.7193 251.249 38.8058 250.063 36.9463C248.591 34.6452 246.999 32.4162 245.274 30.2864C238.897 22.4069 230.966 18.0301 221.789 17.4233C218.326 17.195 214.694 17.4864 210.891 18.3545ZM238.918 36.7901C243.619 43.507 247.675 50.6836 250.162 58.53C251.327 62.1979 251.814 66.1842 251.952 70.0504C252.187 76.7823 251.532 83.5263 249.825 90.045C248.915 93.5326 247.035 96.7649 245.665 100.144C244.854 102.148 244.1 104.188 243.502 106.267C243.151 107.513 243.454 108.793 244.887 109.271C246.275 109.73 247.6 109.424 248.51 108.213C250.628 105.389 252.757 102.563 254.74 99.6428C255.527 98.4832 256.392 97.8404 257.711 97.2546C262.055 95.329 266.296 93.1511 270.478 90.8831C278.613 86.4702 287.252 87.2813 295.907 88.2636C297.084 88.3988 298.253 88.9605 299.334 89.5133C311.23 95.6024 319.47 104.954 323.408 117.721C325.697 125.144 326.181 132.984 324.814 140.602C323.291 149.08 318.227 155.49 310.669 159.702C308.34 161.002 305.76 161.895 303.216 162.748C298.346 164.37 297.535 165.439 297.965 170.402C299.076 183.349 290.632 194.431 277.796 196.333C274.623 196.801 271.202 196.342 268.015 195.717C263.8 194.888 259.97 192.905 256.182 190.4C256.407 189.48 256.587 188.561 256.852 187.669C258.183 183.244 258.669 178.726 257.263 174.301C255.257 168.026 253.232 161.723 250.637 155.685C247.557 148.527 242.472 143.063 235.232 139.653C232.048 138.154 229.188 136.03 225.607 135.333C223.82 134.985 222.201 134.994 220.684 135.961C219.013 137.034 219.028 138.641 220.636 139.83C220.924 140.047 221.266 140.2 221.609 140.329C225.373 141.792 228.746 143.946 232.252 145.913C237.867 149.065 241.928 153.441 244.187 159.314C246.287 164.766 247.84 170.432 249.585 176.016C250.543 179.069 250.159 182.154 249.047 185.022C245.923 193.115 239.612 198.093 231.72 202.41C231.174 200.469 230.399 199.006 230.405 197.549C230.426 193.163 230.786 188.783 230.939 184.398C231.017 182.079 231.189 179.717 230.834 177.455C230.609 175.992 229.696 174.505 228.722 173.337C228.155 172.658 226.602 172.051 225.962 172.37C225.051 172.814 223.931 174.211 224.024 175.082C224.919 183.532 221.927 191.778 222.85 200.226C223.099 202.491 223.417 204.53 224.958 206.297C230.318 212.452 231.823 219.659 230.269 227.491C229.221 232.737 226.866 237.416 222.847 241.118C216.115 247.312 208.1 248.315 200.277 243.548C197.279 241.724 194.639 239.279 191.989 236.947C190.433 235.583 189.028 233.999 187.823 232.317C184.068 227.071 179.634 222.9 173.581 220.13C164.99 216.202 162.776 205.348 165.377 197.681C166.275 195.02 167.014 192.274 168.228 189.757C170.898 184.211 170.52 178.564 168.985 172.943C168.126 169.792 166.723 166.755 165.275 163.808C163.641 160.489 161.352 157.773 157.921 155.914C154.762 154.201 151.965 151.819 148.328 149.248C148.812 150.446 148.958 150.861 149.149 151.26C152.088 157.428 155.07 163.574 157.963 169.759C159.474 172.979 160.634 176.296 160.658 179.949C160.679 182.772 159.892 185.257 158.179 187.447C157.203 188.693 156.219 189.991 155.011 190.997C145.189 199.162 133.88 202.986 121.099 202.28C119.276 202.184 117.461 201.827 115.652 201.526C106.901 200.069 99.542 196.107 93.5916 189.453C86.4779 181.487 80.7084 172.778 78.7675 162.093C77.276 153.901 77.6966 145.943 83.6859 139.308C86.2039 136.511 88.6486 133.591 92.8878 133.294C94.4475 133.185 95.704 132.182 95.6989 130.434C95.6893 128.767 94.5794 127.601 93.044 127.334C90.8 126.937 88.4923 126.904 85.9254 126.694C86.2676 120.397 86.9961 114.041 89.7585 108.093C91.773 103.743 95.7236 101.986 100.051 101.34C104.016 100.751 108.084 100.76 112.108 100.682C112.939 100.664 113.936 101.253 114.596 101.851C125.49 111.752 138.368 114.93 152.674 112.923C157.095 112.305 160.931 109.995 164.755 107.273C165.251 107.937 165.774 108.55 166.182 109.226C167.909 112.073 178.973 124.014 181.824 125.411C185.648 127.286 189.631 128.875 193.663 130.272C196.276 131.182 199.016 130.668 201.509 129.445C205.676 127.403 209.785 125.264 213.913 123.149C214.348 122.927 214.907 122.686 215.087 122.302C215.511 121.392 216.235 120.169 215.922 119.487C215.601 118.778 214.132 118.081 213.297 118.207C210.779 118.589 208.319 119.367 205.841 120.01C205.489 120.103 205.162 120.289 204.823 120.424C196.498 123.765 195.474 123.762 187.571 119.737C186.459 119.172 185.648 118.033 184.63 117.252C183.888 116.678 183.08 116.153 182.22 115.771C176.573 113.227 173.431 108.853 172.956 102.731C172.34 94.7342 173.968 87.2993 178.339 80.3871C180.929 76.2927 183.698 72.5497 187.613 69.6689C188.337 69.1341 188.88 68.2059 189.238 67.3437C190.959 63.1411 193.705 59.8037 197.433 57.2413C202.657 53.6455 207.908 50.0858 213.081 46.4179C214.255 45.5828 215.267 44.4503 216.148 43.2967C217.77 41.1579 219.296 38.9439 220.768 36.6939C221.765 35.1709 221.999 33.5007 220.96 31.8635C219.948 30.2714 218.719 30.0611 217.355 31.3618C215.937 32.7076 214.721 34.2607 213.267 35.5554C211.645 37.0064 210.025 38.6345 208.106 39.5177C206.066 40.4549 204.627 41.8008 203.552 43.5761C202.17 45.8562 200.293 47.4723 197.955 48.6889C194.005 50.7557 190.698 53.5644 187.901 57.0821C186.246 59.1669 184.248 61.0684 182.127 62.6875C171.752 70.6031 166.116 81.2373 163.929 93.8901C163.578 95.9238 163.524 98.0116 163.319 100.229C150.792 107.195 138.363 106.543 125.778 99.835C113.315 93.1902 106.964 82.7303 105.869 68.9839C105.248 61.1645 107.6 54.2674 114.044 49.1636C117.647 46.3068 122.057 45.727 126.267 44.5734C129.416 43.7173 132.599 42.9813 135.762 42.1702C136.232 42.0501 136.696 41.8518 137.112 41.6085C138.984 40.512 139.063 38.7817 137.014 38.1629C134.506 37.4089 131.792 37.3488 129.157 37.0604C128.595 36.9973 128.003 37.2287 127.509 37.3098C127.509 34.9456 127.577 33.017 127.494 31.0975C127.269 25.3508 129.597 20.8689 134.242 17.6275C141.561 12.5087 149.892 10.2978 158.669 9.60986C161.979 9.35452 164.962 10.5561 167.543 12.5328C176.978 19.7394 182.25 29.3071 183.515 41.0978C183.569 41.5845 183.554 42.0771 183.623 42.5607C183.933 44.6065 184.699 46.3368 186.871 47.0247C188.835 47.6435 190.62 46.9226 192.263 44.8859C194.714 41.8398 196.991 38.6315 199.656 35.7897C203.366 31.8395 207.625 28.514 213.017 27.1112C222.387 24.6779 233.129 28.5291 238.918 36.7901Z" fill="#D05127"/>
<path d="M213.017 27.1115C207.625 28.5143 203.366 31.8398 199.656 35.79C196.991 38.6318 194.714 41.8401 192.263 44.8861C190.62 46.9229 188.835 47.6438 186.871 47.025C184.699 46.3371 183.933 44.6068 183.623 42.561C183.554 42.0774 183.569 41.5848 183.515 41.0981C182.25 29.3074 176.978 19.7397 167.543 12.5331C164.962 10.5564 161.979 9.35481 158.669 9.61015C149.892 10.2981 141.561 12.509 134.242 17.6278C129.597 20.8691 127.269 25.3511 127.494 31.0978C127.577 33.0173 127.509 34.9459 127.509 37.31C128.003 37.2289 128.594 36.9976 129.157 37.0607C131.792 37.3491 134.506 37.4092 137.014 38.1632C139.063 38.782 138.984 40.5123 137.112 41.6088C136.696 41.8521 136.232 42.0504 135.762 42.1705C132.599 42.9816 129.416 43.7176 126.267 44.5737C122.057 45.7272 117.647 46.307 114.044 49.1638C107.6 54.2676 105.248 61.1648 105.869 68.9842C106.964 82.7305 113.315 93.1905 125.778 99.8353C138.363 106.543 150.792 107.195 163.319 100.229C163.523 98.0119 163.578 95.9241 163.929 93.8904C166.116 81.2375 171.751 70.6034 182.127 62.6878C184.248 61.0687 186.246 59.1672 187.901 57.0824C190.698 53.5647 194.005 50.7559 197.955 48.6892C200.292 47.4726 202.17 45.8564 203.552 43.5764C204.627 41.801 206.066 40.4552 208.106 39.518C210.025 38.6348 211.645 37.0067 213.267 35.5557C214.721 34.261 215.937 32.7079 217.355 31.3621C218.719 30.0614 219.948 30.2717 220.96 31.8638C221.999 33.501 221.765 35.1712 220.768 36.6942C219.296 38.9442 217.77 41.1582 216.148 43.297C215.267 44.4505 214.255 45.5831 213.08 46.4182C207.908 50.0861 202.657 53.6458 197.433 57.2416C193.705 59.804 190.959 63.1414 189.238 67.344C188.88 68.2062 188.337 69.1344 187.613 69.6691C183.698 72.55 180.929 76.293 178.339 80.3874C173.968 87.2996 172.34 94.7345 172.956 102.731C173.431 108.853 176.573 113.227 182.22 115.772C183.08 116.153 183.888 116.679 184.63 117.253C185.648 118.034 186.459 119.172 187.57 119.737C195.474 123.762 196.498 123.765 204.822 120.425C205.162 120.29 205.489 120.103 205.841 120.01C208.319 119.367 210.779 118.589 213.297 118.208C214.132 118.082 215.601 118.779 215.922 119.487C216.235 120.169 215.511 121.392 215.087 122.302C214.907 122.687 214.348 122.927 213.913 123.149C209.785 125.264 205.676 127.403 201.509 129.446C199.016 130.668 196.276 131.182 193.663 130.272C189.631 128.875 185.648 127.286 181.824 125.411C178.973 124.014 167.909 112.074 166.182 109.226C165.773 108.55 165.251 107.937 164.755 107.273C160.931 109.995 157.095 112.305 152.674 112.924C138.368 114.93 125.49 111.752 114.596 101.851C113.936 101.253 112.939 100.664 112.108 100.682C108.084 100.761 104.016 100.752 100.05 101.34C95.7235 101.986 91.773 103.744 89.7585 108.093C86.996 114.041 86.2675 120.398 85.9254 126.694C88.4923 126.904 90.8 126.937 93.044 127.334C94.5793 127.601 95.6893 128.767 95.6989 130.434C95.704 132.182 94.4474 133.186 92.8877 133.294C88.6485 133.591 86.2038 136.511 83.6859 139.308C77.6965 145.944 77.276 153.901 78.7674 162.093C80.7083 172.778 86.4778 181.487 93.5916 189.454C99.5419 196.107 106.9 200.07 115.652 201.527C117.461 201.827 119.275 202.185 121.099 202.281C133.88 202.987 145.189 199.163 155.011 190.998C156.219 189.991 157.203 188.694 158.179 187.447C159.892 185.257 160.679 182.773 160.658 179.949C160.634 176.296 159.474 172.98 157.963 169.759C155.07 163.574 152.088 157.428 149.149 151.261C148.958 150.861 148.812 150.447 148.328 149.248C151.965 151.82 154.762 154.202 157.921 155.914C161.352 157.773 163.641 160.489 165.275 163.808C166.723 166.755 168.126 169.792 168.985 172.944C170.52 178.564 170.898 184.212 168.228 189.757C167.014 192.274 166.275 195.02 165.377 197.682C162.775 205.348 164.989 216.202 173.581 220.13C179.634 222.9 184.068 227.071 187.823 232.317C189.027 233.999 190.433 235.583 191.989 236.947C194.639 239.28 197.279 241.724 200.277 243.548C208.1 248.315 216.115 247.312 222.846 241.118C226.866 237.417 229.221 232.738 230.269 227.491C231.822 219.659 230.317 212.452 224.958 206.297C223.417 204.531 223.099 202.491 222.849 200.226C221.927 191.779 224.919 183.533 224.024 175.082C223.931 174.211 225.051 172.814 225.962 172.37C226.601 172.051 228.155 172.658 228.722 173.337C229.696 174.506 230.609 175.993 230.834 177.456C231.189 179.718 231.017 182.079 230.939 184.398C230.786 188.784 230.426 193.164 230.405 197.549C230.399 199.006 231.174 200.469 231.72 202.41C239.612 198.093 245.923 193.116 249.047 185.023C250.159 182.154 250.543 179.069 249.585 176.017C247.84 170.432 246.287 164.767 244.187 159.315C241.928 153.442 237.866 149.065 232.252 145.914C228.746 143.946 225.373 141.792 221.609 140.329C221.266 140.2 220.924 140.047 220.636 139.831C219.028 138.641 219.013 137.034 220.684 135.961C222.201 134.994 223.82 134.985 225.607 135.334C229.188 136.031 232.048 138.154 235.232 139.653C242.472 143.063 247.557 148.527 250.636 155.686C253.232 161.724 255.257 168.026 257.263 174.301C258.669 178.726 258.183 183.244 256.852 187.669C256.587 188.561 256.407 189.481 256.182 190.4C259.97 192.905 263.8 194.888 268.015 195.717C271.202 196.342 274.623 196.801 277.796 196.333C290.632 194.431 299.076 183.349 297.964 170.402C297.535 165.44 298.346 164.37 303.215 162.748C305.76 161.895 308.34 161.003 310.668 159.702C318.226 155.49 323.291 149.08 324.814 140.603C326.181 132.984 325.697 125.144 323.408 117.721C319.47 104.954 311.23 95.6027 299.334 89.5136C298.253 88.9608 297.084 88.3991 295.907 88.2639C287.252 87.2816 278.613 86.4705 270.478 90.8834C266.296 93.1514 262.055 95.3293 257.711 97.2549C256.392 97.8406 255.527 98.4835 254.74 99.643C252.757 102.563 250.627 105.39 248.51 108.213C247.599 109.424 246.275 109.73 244.887 109.271C243.454 108.793 243.151 107.514 243.502 106.267C244.1 104.188 244.854 102.148 245.665 100.145C247.035 96.7652 248.915 93.5329 249.825 90.0453C251.532 83.5266 252.187 76.7826 251.952 70.0507C251.814 66.1845 251.327 62.1982 250.162 58.5303C247.675 50.6839 243.619 43.5073 238.918 36.7904C233.129 28.5294 222.387 24.6782 213.017 27.1115Z" fill="white"/>
<path d="M97.3697 229.854C95.2398 233.549 96.9611 239.518 102.537 239.518C110.608 239.518 110.608 227 102.537 227C101.284 227 100.251 227.327 99.3854 227.838C98.5292 228.343 97.8443 229.031 97.3697 229.854Z" fill="#D05127"/>
<path d="M11.5901 240.879C13.0831 237.184 11.2507 232.008 6.05381 232.008C-2.01794 232.008 -2.01794 244.525 6.05381 244.525C6.93098 244.525 7.69095 244.354 8.37886 244.093C9.94395 243.492 11.0134 242.302 11.5901 240.879Z" fill="#D05127"/>
<path d="M11.1874 272.36C10.2291 270.735 8.52593 269.558 6.05363 269.558C-0.585206 269.558 -1.75079 278.014 2.53291 281.018C3.45814 281.667 4.62373 282.075 6.05363 282.075C11.6561 282.075 13.3623 276.049 11.1874 272.36Z" fill="#D05127"/>
</svg>
