<svg width="4000" height="2667" viewBox="0 0 4000 2667" fill="none" xmlns="http://www.w3.org/2000/svg">
<path d="M2489.85 985.44L849.64 0.000244141H0.00012207V2604.67L2439.23 1406.25L2489.85 985.44Z" fill="white"/>
<path d="M2332.73 2397.36C2332.73 2442.77 2560.72 2479.59 2841.96 2479.59C3123.19 2479.59 3351.18 2442.77 3351.18 2397.36C3351.18 2351.93 3123.19 2315.12 2841.96 2315.12C2560.72 2315.12 2332.73 2351.93 2332.73 2397.36Z" fill="#FF9100"/>
<path d="M2826.51 1033.05L2759.46 1024.43C2752.98 1023.28 2746.84 1027.77 2746 1034.31L2697.81 1409.59C2696.98 1416 2701.75 1421.76 2708.2 1422.15L2779.66 1426.35L2826.51 1033.05Z" fill="#4B5C6E"/>
<path d="M3372.77 1144.21L3469.36 1011.07C3490.54 981.893 3497.41 945.16 3488.24 910.307C3479.06 875.44 3454.98 846.853 3422.18 831.88L3016.19 646.493C2940.99 612.147 2852.45 642.853 2814.64 716.373L2810.91 723.64C2772.01 799.293 2774.99 887.987 2818.88 960.867L2879.22 1061.04L2894.53 1051.83L2834.19 951.64C2793.52 884.107 2790.76 801.933 2826.81 731.813L2830.54 724.547C2863.97 659.533 2942.25 632.373 3008.77 662.76L3414.75 848.147C3442.66 860.88 3463.14 885.2 3470.95 914.854C3478.75 944.507 3472.9 975.747 3454.9 1000.57L3358.31 1133.72L3372.77 1144.21Z" fill="#4B5C6E"/>
<path d="M3226.38 930.52C3217.84 1000.15 3267.38 1063.52 3337.03 1072.05C3406.67 1080.59 3470.06 1031.07 3478.6 961.427C3487.14 891.8 3437.6 828.44 3367.95 819.893C3298.31 811.36 3234.92 860.893 3226.38 930.52Z" fill="#282F39"/>
<path d="M2800.47 791.987C2789.09 884.747 2855.08 969.16 2947.86 980.533C3040.65 991.907 3125.08 925.92 3136.46 833.173C3147.83 740.413 3081.84 656 2989.06 644.627C2896.28 633.253 2811.84 699.227 2800.47 791.987Z" fill="#282F39"/>
<path d="M3239.99 969.04C3259.95 971.48 3278.2 957.227 3280.67 937.107C3283.11 917.16 3268.85 898.907 3248.89 896.467C3228.77 894 3210.68 908.28 3208.23 928.227C3205.77 948.347 3219.87 966.574 3239.99 969.04ZM3237.89 1035.43C3250.32 1051.32 3273.18 1054.12 3289.08 1041.69C3304.98 1029.28 3307.78 1006.43 3295.36 990.52C3283.09 974.654 3260.07 971.827 3244.17 984.254C3228.27 996.68 3225.47 1019.53 3237.89 1035.43ZM3314.27 837.667C3301.84 821.774 3278.98 818.96 3263.08 831.387C3247.18 843.814 3244.37 866.667 3256.64 882.547C3269.07 898.44 3292.09 901.267 3307.97 889C3323.87 876.574 3326.69 853.56 3314.27 837.667ZM3361.26 874.134C3381.38 876.6 3399.47 862.32 3401.92 842.36C3404.37 822.414 3390.26 804.187 3370.14 801.72C3350.18 799.28 3331.93 813.534 3329.48 833.494C3327.04 853.44 3341.3 871.694 3361.26 874.134ZM3334.75 1090.25C3354.87 1092.72 3372.97 1078.44 3375.41 1058.49C3377.86 1038.53 3363.76 1020.31 3343.64 1017.84C3323.68 1015.4 3305.43 1029.65 3302.98 1049.61C3300.53 1069.56 3314.79 1087.81 3334.75 1090.25ZM3409.54 901.454C3421.97 917.347 3444.83 920.147 3460.73 907.72C3476.63 895.307 3479.43 872.454 3467.16 856.574C3454.73 840.68 3431.72 837.854 3415.81 850.28C3399.93 862.547 3397.11 885.56 3409.54 901.454ZM3390.79 1054.33C3403.06 1070.21 3426.08 1073.03 3441.98 1060.6C3457.88 1048.19 3460.7 1025.17 3448.27 1009.27C3435.85 993.374 3412.99 990.574 3397.09 1003C3381.19 1015.43 3378.36 1038.44 3390.79 1054.33ZM3496.84 963.614C3499.29 943.654 3485.03 925.414 3465.07 922.96C3444.95 920.494 3426.86 934.774 3424.41 954.734C3421.94 974.84 3436.04 993.067 3456.17 995.534C3476.13 997.987 3494.38 983.72 3496.84 963.614ZM3371.96 786.907C3459.84 797.68 3522.41 877.72 3511.65 965.427C3500.88 1053.29 3420.83 1115.84 3332.94 1105.07C3245.05 1094.29 3182.65 1014.28 3193.42 926.414C3204.18 838.707 3284.07 776.147 3371.96 786.907Z" fill="white"/>
<path d="M3296.78 939.147C3293.01 969.907 3314.89 997.907 3345.66 1001.68C3376.43 1005.45 3404.44 983.573 3408.21 952.813C3411.98 922.04 3390.1 894.053 3359.33 890.28C3328.56 886.507 3300.55 908.387 3296.78 939.147Z" fill="#4B5C6E"/>
<path d="M3335.59 943.907C3334.44 953.24 3341.09 961.733 3350.42 962.88C3359.76 964.027 3368.26 957.387 3369.4 948.053C3370.55 938.72 3363.91 930.213 3354.57 929.08C3345.23 927.933 3336.73 934.573 3335.59 943.907Z" fill="#282F39"/>
<path d="M2810.52 844.947C2838.54 848.373 2864.16 828.36 2867.62 800.12C2871.06 772.107 2851.03 746.493 2823.01 743.053C2794.77 739.6 2769.37 759.64 2765.94 787.653C2762.47 815.893 2782.27 841.48 2810.52 844.947ZM2807.57 938.133C2825.02 960.453 2857.11 964.386 2879.43 946.946C2901.75 929.507 2905.69 897.427 2888.24 875.107C2871.02 852.813 2838.71 848.853 2816.38 866.293C2794.06 883.747 2790.13 915.827 2807.57 938.133ZM2914.79 660.52C2897.34 638.2 2865.25 634.267 2842.93 651.707C2820.61 669.16 2816.67 701.24 2833.89 723.52C2851.34 745.84 2883.65 749.8 2905.95 732.587C2928.27 715.147 2932.23 682.84 2914.79 660.52ZM2980.76 711.72C3009 715.173 3034.4 695.133 3037.83 667.12C3041.27 639.107 3021.47 613.52 2993.23 610.053C2965.21 606.627 2939.59 626.64 2936.15 654.653C2932.71 682.667 2952.74 708.28 2980.76 711.72ZM2943.55 1015.12C2971.79 1018.57 2997.19 998.533 3000.63 970.52C3004.06 942.507 2984.26 916.92 2956.02 913.453C2928 910.027 2902.38 930.04 2898.94 958.053C2895.51 986.067 2915.53 1011.68 2943.55 1015.12ZM3048.53 750.067C3065.98 772.387 3098.07 776.32 3120.39 758.867C3142.71 741.427 3146.65 709.347 3129.43 687.053C3111.98 664.747 3079.67 660.787 3057.34 678.227C3035.05 695.44 3031.09 727.747 3048.53 750.067ZM3022.21 964.68C3039.43 986.973 3071.75 990.933 3094.07 973.48C3116.39 956.04 3120.35 923.733 3102.91 901.427C3085.46 879.107 3053.37 875.173 3031.05 892.613C3008.73 910.053 3004.77 942.36 3022.21 964.68ZM3171.09 837.32C3174.53 809.307 3154.5 783.693 3126.48 780.253C3098.24 776.8 3072.84 796.84 3069.41 824.853C3065.94 853.093 3085.74 878.68 3113.99 882.147C3142.01 885.573 3167.63 865.56 3171.09 837.32ZM2995.77 589.267C3119.15 604.4 3206.98 716.747 3191.88 839.867C3176.75 963.213 3064.38 1051.01 2941 1035.89C2817.62 1020.77 2730.02 908.453 2745.15 785.107C2760.25 661.987 2872.4 574.147 2995.77 589.267Z" fill="white"/>
<path d="M2890.24 802.987C2884.94 846.173 2915.67 885.467 2958.86 890.76C3002.06 896.067 3041.37 865.347 3046.67 822.16C3051.96 778.973 3021.24 739.667 2978.04 734.373C2934.85 729.08 2895.54 759.8 2890.24 802.987Z" fill="#4B5C6E"/>
<path d="M2944.72 809.667C2943.11 822.76 2952.44 834.694 2965.54 836.294C2978.65 837.907 2990.58 828.587 2992.19 815.48C2993.8 802.373 2984.47 790.454 2971.36 788.84C2958.26 787.24 2946.33 796.56 2944.72 809.667Z" fill="#282F39"/>
<path d="M3115.99 1577.48L3320.23 1602.52L3324.36 1568.84L3120.12 1543.8L3115.99 1577.48Z" fill="#4B5C6E"/>
<path d="M2945.04 1414.55C2936.82 1481.63 2984.54 1542.67 3051.63 1550.89C3118.72 1559.12 3179.78 1511.41 3188.01 1444.33C3196.23 1377.25 3148.51 1316.21 3081.42 1307.99C3014.33 1299.76 2953.27 1347.47 2945.04 1414.55Z" fill="#282F39"/>
<path d="M3085.29 1605.53L3311.11 2369.03C3314.51 2380.55 3332.82 2376.07 3329.58 2363.81C3329.58 2363.81 3123.53 1594.76 3123.53 1594.76C3116.34 1569.56 3078.23 1579.84 3085.29 1605.53Z" fill="#282F39"/>
<path d="M2988 1578.15L2602.96 2275.08C2597.68 2284.6 2612.23 2293.67 2618.12 2283.73L3022.5 1597.84C3035.46 1575.03 3001.35 1555.05 2988 1578.15Z" fill="#282F39"/>
<path d="M2983.92 1576.76L3128.06 1594.43L3139.47 1501.35L2995.33 1483.68L2983.92 1576.76Z" fill="#282F39"/>
<path d="M3037.6 1594L2942.65 2446.83C2941.32 2459.68 2961.03 2462.93 2963.09 2449.33L3077.03 1598.83C3080.1 1572.87 3041.05 1567.61 3037.6 1594Z" fill="#282F39"/>
<path d="M2986.95 1411.57C2981.5 1456.04 3013.14 1496.52 3057.63 1501.97C3102.12 1507.43 3142.61 1475.8 3148.06 1431.32C3153.52 1386.84 3121.87 1346.36 3077.38 1340.91C3032.89 1335.45 2992.41 1367.09 2986.95 1411.57Z" fill="#4B5C6E"/>
<path d="M3005.71 2029.13C3007.55 2029.13 3009.4 2028.71 3011.11 2027.84L3203.63 1929.88C3209.49 1926.89 3211.83 1919.72 3208.85 1913.85C3205.86 1907.99 3198.68 1905.67 3192.82 1908.64L3007.72 2002.83L2862.81 1868.41C2857.99 1863.95 2850.45 1864.21 2845.97 1869.04C2841.49 1873.87 2841.77 1881.41 2846.6 1885.89L2997.61 2025.95C2999.86 2028.04 3002.77 2029.13 3005.71 2029.13Z" fill="#282F39"/>
<path d="M3227.91 1603.87L3355.45 1619.51L3362.95 1558.43L3235.4 1542.79L3227.91 1603.87Z" fill="#282F39"/>
<path d="M2778.28 1426.28L3342.27 1457.85C3351.98 1458.39 3360.45 1451.31 3361.63 1441.67L3396.3 1159.03C3397.48 1149.37 3390.97 1140.45 3381.42 1138.64L2826.51 1033.05C2816.02 1031.07 2806.02 1038.35 2804.73 1048.95L2760.99 1405.59C2759.69 1416.19 2767.62 1425.68 2778.28 1426.28Z" fill="#282F39"/>
<path d="M2852.94 1228.91L3056.26 1240.29C3063.66 1240.71 3070.11 1235.32 3071.01 1227.97L3082.78 1132.01C3083.68 1124.67 3078.72 1117.88 3071.45 1116.49L2871.39 1078.43C2863.4 1076.91 2855.79 1082.47 2854.81 1090.53L2839.77 1213.16C2838.78 1221.24 2844.82 1228.45 2852.94 1228.91Z" fill="#4B5C6E"/>
<path d="M3371.17 1363.87L3474.49 1435.16C3480.97 1439.63 3489.89 1435.63 3490.85 1427.81L3518.33 1203.67C3519.29 1195.85 3511.61 1189.81 3504.24 1192.59L3386.76 1236.81L3371.17 1363.87Z" fill="#282F39"/>
<path d="M2980.45 1168.17C2978.33 1185.48 2990.64 1201.23 3007.95 1203.35C3025.26 1205.47 3041.01 1193.16 3043.14 1175.85C3045.26 1158.55 3032.95 1142.8 3015.64 1140.68C2998.33 1138.56 2982.58 1150.87 2980.45 1168.17Z" fill="white"/>
<path d="M2885.06 1156.48C2882.94 1173.79 2895.25 1189.53 2912.56 1191.65C2929.87 1193.77 2945.62 1181.47 2947.74 1164.16C2949.87 1146.85 2937.55 1131.11 2920.24 1128.99C2902.94 1126.87 2887.18 1139.17 2885.06 1156.48Z" fill="#F6A228"/>
<path d="M2953.79 1594.63L3152.49 1618.99L3155.62 1593.48L2956.92 1569.12L2953.79 1594.63Z" fill="#4B5C6E"/>
<path d="M3313.9 1287.81L3299.77 1403L3101.15 1386.04L3116.8 1258.37L3313.9 1287.81ZM3315.43 1422.29L3333.77 1272.71L3101.29 1237.99L3081.15 1402.28L3315.43 1422.29Z" fill="#4B5C6E"/>
<path d="M3269.18 1197.99C3266.55 1219.48 3281.83 1239.03 3303.33 1241.67C3324.82 1244.31 3344.38 1229.01 3347.02 1207.53C3349.66 1186.04 3334.37 1166.48 3312.87 1163.84C3291.38 1161.21 3271.82 1176.49 3269.18 1197.99Z" fill="#4B5C6E"/>
<path d="M3308.09 1185.12C3308.8 1185.12 3309.52 1185.16 3310.25 1185.25C3314.92 1185.83 3319.1 1188.19 3322 1191.89C3324.9 1195.61 3326.18 1200.23 3325.61 1204.91C3324.42 1214.56 3315.61 1221.48 3305.95 1220.25C3301.28 1219.68 3297.1 1217.32 3294.2 1213.61C3291.3 1209.91 3290.02 1205.29 3290.59 1200.61C3291.69 1191.68 3299.31 1185.12 3308.09 1185.12ZM3308.12 1228.33C3320.85 1228.33 3331.91 1218.81 3333.5 1205.87C3334.33 1199.09 3332.47 1192.39 3328.26 1187.01C3324.05 1181.63 3318 1178.2 3311.21 1177.36C3297.24 1175.75 3284.42 1185.64 3282.7 1199.64C3281.88 1206.43 3283.73 1213.12 3287.94 1218.51C3292.15 1223.89 3298.21 1227.31 3304.99 1228.15C3306.04 1228.27 3307.09 1228.33 3308.12 1228.33Z" fill="white"/>
<path d="M3130.9 1174.19C3119.71 1182.93 3117.72 1199.09 3126.47 1210.28C3135.22 1221.48 3151.38 1223.45 3162.57 1214.71C3173.77 1205.97 3200.89 1160.49 3197.32 1155.93C3193.76 1151.37 3142.09 1165.45 3130.9 1174.19Z" fill="#F6A228"/>
<path d="M3135.51 1192.99C3134.67 1199.85 3139.55 1206.09 3146.41 1206.93C3153.27 1207.77 3159.52 1202.89 3160.36 1196.04C3161.2 1189.17 3156.32 1182.93 3149.46 1182.09C3142.6 1181.25 3136.35 1186.13 3135.51 1192.99Z" fill="white"/>
<path d="M3279.73 1379.71C3281.8 1379.71 3283.54 1378.11 3283.69 1376.01C3283.85 1373.83 3282.2 1371.92 3280.01 1371.76L3228.06 1368.09C3225.89 1367.91 3223.97 1369.57 3223.82 1371.77C3223.66 1373.96 3225.31 1375.87 3227.5 1376.01L3279.45 1379.69C3279.55 1379.71 3279.64 1379.71 3279.73 1379.71Z" fill="white"/>
<path d="M2989.77 1368.39C2988.56 1378.24 2995.57 1387.2 3005.43 1388.41C3015.28 1389.63 3024.25 1382.61 3025.46 1372.76C3026.67 1362.91 3019.66 1353.93 3009.8 1352.73C2999.95 1351.52 2990.98 1358.53 2989.77 1368.39Z" fill="#F6A228"/>
<path d="M2925.07 1363.08C2923.86 1372.93 2930.87 1381.89 2940.73 1383.11C2950.59 1384.32 2959.56 1377.31 2960.77 1367.45C2961.97 1357.6 2954.96 1348.63 2945.11 1347.43C2935.25 1346.21 2926.28 1353.23 2925.07 1363.08Z" fill="white"/>
<path d="M2860.11 1359.88C2858.91 1369.73 2865.92 1378.71 2875.77 1379.92C2885.63 1381.12 2894.6 1374.11 2895.81 1364.25C2897.02 1354.4 2890.01 1345.44 2880.15 1344.23C2870.29 1343.01 2861.32 1350.03 2860.11 1359.88Z" fill="#F6A228"/>
<path d="M2653.04 1330.04L2720.52 1338.31L2747.29 1120.03L2679.81 1111.76L2653.04 1330.04Z" fill="#282F39"/>
<path d="M2679.81 1111.76L2502.31 989.28C2491.17 981.6 2475.85 988.48 2474.21 1001.91L2426.99 1386.97C2425.35 1400.4 2438.53 1410.77 2451.2 1406.01L2653.04 1330.04L2679.81 1111.76Z" fill="#4B5C6E"/>
<path d="M2404.77 1188.56C2390.52 1304.83 2404.81 1402.25 2436.71 1406.16C2468.61 1410.07 2506.03 1318.99 2520.29 1202.72C2534.55 1086.45 2520.25 989.027 2488.35 985.12C2456.45 981.213 2419.04 1072.29 2404.77 1188.56Z" fill="white"/>
<path d="M2621.56 1216.23C2614.11 1276.99 2624.6 1328.27 2645 1330.76C2665.4 1333.25 2687.97 1286.03 2695.43 1225.28C2702.88 1164.52 2692.38 1113.24 2671.98 1110.73C2651.59 1108.24 2629.01 1155.47 2621.56 1216.23Z" fill="#4B5C6E"/>
<path d="M2695.19 1224.49C2687.79 1284.84 2698.32 1335.79 2718.72 1338.28C2739.12 1340.79 2761.65 1293.89 2769.05 1233.55C2776.45 1173.21 2765.92 1122.27 2745.52 1119.77C2725.12 1117.27 2702.59 1164.16 2695.19 1224.49Z" fill="#282F39"/>
<path d="M3449.17 1308.59C3440.81 1376.79 3456.5 1434.84 3484.21 1438.23C3511.93 1441.63 3541.17 1389.09 3549.53 1320.89C3557.89 1252.69 3542.2 1194.65 3514.49 1191.25C3486.78 1187.85 3457.53 1240.39 3449.17 1308.59Z" fill="#282F39"/>
</svg>
