<svg width="321" height="322" viewBox="0 0 321 322" fill="none" xmlns="http://www.w3.org/2000/svg">
<path d="M47.9893 184.04C67.9506 186.48 86.1999 172.227 88.6666 152.107C91.1146 132.16 76.8506 113.907 56.8906 111.467C36.7706 109 18.6799 123.28 16.2332 143.227C13.7666 163.347 27.8693 181.574 47.9893 184.04ZM45.8933 250.427C58.3213 266.32 81.1786 269.12 97.0813 256.694C112.981 244.28 115.784 221.427 103.357 205.52C91.0893 189.654 68.0706 186.827 52.1693 199.254C36.2679 211.68 33.4666 234.534 45.8933 250.427ZM122.267 52.6669C109.839 36.7736 86.9813 33.9603 71.0799 46.387C55.1773 58.8137 52.3746 81.6669 64.6426 97.5469C77.0706 113.44 100.088 116.267 115.971 104C131.872 91.5736 134.695 68.5603 122.267 52.6669ZM169.26 89.1336C189.381 91.6003 207.471 77.3203 209.917 57.3603C212.365 37.4136 198.261 19.187 178.141 16.7203C158.181 14.2803 139.931 28.5336 137.484 48.4936C135.036 68.4403 149.3 86.6936 169.26 89.1336ZM142.755 305.254C162.875 307.72 180.965 293.44 183.412 273.494C185.86 253.534 171.756 235.307 151.636 232.84C131.676 230.4 113.425 244.654 110.979 264.614C108.531 284.56 122.795 302.814 142.755 305.254ZM217.539 116.454C229.967 132.347 252.825 135.147 268.727 122.72C284.628 110.307 287.429 87.4536 275.163 71.5736C262.735 55.6802 239.717 52.8535 223.815 65.2802C207.935 77.5469 205.112 100.56 217.539 116.454ZM198.791 269.334C211.057 285.214 234.076 288.027 249.977 275.6C265.879 263.187 268.7 240.174 256.273 224.267C243.845 208.374 220.988 205.574 205.085 218C189.185 230.427 186.363 253.44 198.791 269.334ZM304.843 178.614C307.289 158.654 293.027 140.414 273.067 137.96C252.945 135.494 234.856 149.774 232.408 169.734C229.941 189.84 244.044 208.067 264.165 210.534C284.125 212.987 302.376 198.72 304.843 178.614ZM179.957 1.90692C267.844 12.6803 330.408 92.7203 319.652 180.427C308.876 268.294 228.827 330.84 140.939 320.067C53.0519 309.294 -9.35071 229.28 1.42395 141.414C12.1813 53.7069 92.0693 -8.85309 179.957 1.90692Z" fill="white"/>
<path d="M104.78 154.147C101.008 184.907 122.893 212.907 153.664 216.68C184.435 220.453 212.437 198.573 216.211 167.813C219.983 137.04 198.097 109.053 167.327 105.28C136.556 101.507 108.553 123.387 104.78 154.147Z" fill="#4B5C6E"/>
<path d="M143.588 158.907C142.443 168.24 149.085 176.733 158.423 177.88C167.76 179.027 176.257 172.387 177.403 163.053C178.547 153.72 171.905 145.213 162.568 144.08C153.231 142.933 144.733 149.573 143.588 158.907Z" fill="#282F39"/>
</svg>
