<svg width="1031" height="1173" viewBox="0 0 1031 1173" fill="none" xmlns="http://www.w3.org/2000/svg">
<path d="M0.733276 1090.36C0.733276 1135.77 228.72 1172.59 509.957 1172.59C791.192 1172.59 1019.18 1135.77 1019.18 1090.36C1019.18 1044.93 791.192 1008.12 509.957 1008.12C228.72 1008.12 0.733276 1044.93 0.733276 1090.36Z" fill="#FF9100"/>
<path d="M783.991 270.48L988.232 295.52L992.361 261.84L788.12 236.8L783.991 270.48Z" fill="#4B5C6E"/>
<path d="M613.043 107.547C604.816 174.627 652.537 235.667 719.631 243.893C786.724 252.12 847.783 204.413 856.008 137.333C864.235 70.2534 816.513 9.21344 749.42 0.986778C682.327 -7.23989 621.268 40.4667 613.043 107.547Z" fill="#282F39"/>
<path d="M753.288 298.533L979.109 1062.03C982.507 1073.55 1000.82 1069.07 997.581 1056.81C997.583 1056.81 791.528 287.76 791.528 287.76C784.339 262.56 746.231 272.84 753.288 298.533Z" fill="#282F39"/>
<path d="M655.999 271.147L270.96 968.08C265.68 977.6 280.227 986.667 286.12 976.733L690.501 290.84C703.459 268.027 669.345 248.053 655.999 271.147Z" fill="#282F39"/>
<path d="M651.919 269.76L796.057 287.427L807.472 194.347L663.333 176.68L651.919 269.76Z" fill="#282F39"/>
<path d="M705.6 287L610.648 1139.83C609.317 1152.68 629.025 1155.93 631.091 1142.33L745.035 291.827C748.099 265.867 709.053 260.614 705.6 287Z" fill="#282F39"/>
<path d="M654.951 104.573C649.496 149.04 681.14 189.52 725.629 194.973C770.119 200.427 810.607 168.8 816.061 124.32C821.516 79.84 789.873 39.3599 745.383 33.9066C700.893 28.4533 660.405 60.0933 654.951 104.573Z" fill="#4B5C6E"/>
<path d="M673.712 722.133C675.553 722.133 677.403 721.707 679.115 720.84L871.628 622.88C877.493 619.893 879.831 612.72 876.849 606.853C873.861 600.987 866.68 598.667 860.821 601.64L675.716 695.827L530.808 561.413C525.991 556.947 518.451 557.213 513.965 562.04C509.487 566.867 509.772 574.413 514.597 578.893L665.605 718.947C667.859 721.04 670.769 722.133 673.712 722.133Z" fill="#282F39"/>
<path d="M895.909 296.867L1023.45 312.507L1030.95 251.427L903.399 235.787L895.909 296.867Z" fill="#282F39"/>
<path d="M621.791 287.627L820.493 311.987L823.621 286.48L624.919 262.12L621.791 287.627Z" fill="#4B5C6E"/>
</svg>
